<?xml version="1.0" encoding="UTF-8"?>
<svg xmlns="http://www.w3.org/2000/svg" xmlns:xlink="http://www.w3.org/1999/xlink" width="40pt" height="20pt" viewBox="0 0 40 20" version="1.1">
<g id="surface1">
<path style=" stroke:none;fill-rule:nonzero;fill:rgb(0%,0%,0%);fill-opacity:1;" d="M 3.699219 4.898438 C 3.5 4.898438 3.398438 4.800781 3.300781 4.699219 C 3.199219 4.601562 3.101562 4.398438 3.101562 4.199219 L 3.101562 2.101562 C 3.101562 1.898438 3.199219 1.800781 3.300781 1.601562 C 3.398438 1.5 3.601562 1.398438 3.699219 1.398438 L 12.601562 1.398438 C 12.800781 1.398438 12.898438 1.5 13.101562 1.601562 C 13.199219 1.699219 13.300781 1.898438 13.300781 2 L 13.300781 15.398438 C 13.300781 15.601562 13.199219 15.699219 13.101562 15.800781 C 13 15.898438 12.800781 16 12.699219 16 L 10.199219 16 C 10 16 9.898438 15.898438 9.699219 15.800781 C 9.601562 15.699219 9.5 15.5 9.5 15.398438 L 9.5 4.898438 Z M 17.800781 1.300781 C 18 1.300781 18.101562 1.398438 18.199219 1.5 C 18.300781 1.601562 18.398438 1.800781 18.398438 1.898438 L 18.398438 16 C 18.398438 16.199219 18.300781 16.300781 18.199219 16.5 C 18.101562 16.601562 17.898438 16.699219 17.800781 16.699219 L 15.101562 16.699219 C 14.898438 16.699219 14.800781 16.601562 14.699219 16.5 C 14.601562 16.398438 14.5 16.199219 14.5 16 L 14.5 1.898438 C 14.5 1.699219 14.601562 1.601562 14.699219 1.5 C 14.800781 1.398438 14.898438 1.300781 15.101562 1.300781 Z M 17.800781 1.300781 "/>
<path style=" stroke:none;fill-rule:nonzero;fill:rgb(0%,0%,0%);fill-opacity:1;" d="M 34.898438 4.898438 C 34.898438 5.101562 34.800781 5.199219 34.699219 5.300781 C 34.601562 5.398438 34.398438 5.5 34.300781 5.5 L 24.300781 5.5 L 24.300781 5.898438 L 34.398438 5.898438 C 34.601562 5.898438 34.699219 6 34.800781 6.101562 C 34.898438 6.199219 35 6.300781 35 6.5 L 35 7.398438 C 35 7.601562 34.898438 7.699219 34.800781 7.800781 C 34.699219 7.898438 34.5 8 34.398438 8 L 29.699219 8 L 29.699219 8.398438 L 34.898438 8.398438 C 35.101562 8.398438 35.199219 8.5 35.300781 8.601562 C 35.398438 8.699219 35.5 8.898438 35.5 9 L 35.5 10.199219 C 35.5 10.398438 35.398438 10.5 35.300781 10.601562 C 35.199219 10.699219 35 10.800781 34.898438 10.800781 L 20.5 10.800781 C 20.300781 10.800781 20.199219 10.699219 20.101562 10.601562 C 20 10.5 19.898438 10.300781 19.898438 10.199219 L 19.898438 9 C 19.898438 8.800781 20 8.699219 20.101562 8.601562 C 20.199219 8.5 20.300781 8.398438 20.5 8.398438 L 25.699219 8.398438 L 25.699219 8 L 22.5 8 C 21.898438 8 21.300781 7.800781 21 7.5 C 20.601562 7.199219 20.5 6.699219 20.5 6 L 20.5 4.398438 C 20.5 4.199219 20.601562 4.101562 20.699219 3.898438 C 20.800781 3.800781 21 3.699219 21.101562 3.699219 L 31.101562 3.699219 L 31.101562 3.398438 L 21 3.398438 C 20.800781 3.398438 20.699219 3.300781 20.601562 3.199219 C 20.5 3.101562 20.398438 2.898438 20.398438 2.800781 L 20.398438 1.898438 C 20.398438 1.699219 20.5 1.601562 20.601562 1.398438 C 20.699219 1.300781 20.898438 1.199219 21 1.199219 L 34.199219 1.199219 C 34.398438 1.199219 34.5 1.300781 34.699219 1.398438 C 34.800781 1.5 34.898438 1.699219 34.898438 1.800781 Z M 34.800781 16 C 34.800781 16.101562 34.699219 16.300781 34.601562 16.398438 C 34.5 16.5 34.300781 16.5 34.199219 16.5 L 31.5 16.5 C 31.300781 16.5 31.199219 16.398438 31.101562 16.398438 C 31 16.300781 30.898438 16.199219 30.898438 16 L 30.898438 13.699219 L 21.300781 13.699219 C 21.101562 13.699219 21 13.601562 20.898438 13.5 C 20.800781 13.398438 20.699219 13.300781 20.699219 13.199219 L 20.699219 11.601562 C 20.699219 11.5 20.800781 11.300781 20.898438 11.199219 C 21 11.101562 21.199219 11.101562 21.300781 11.101562 L 34.199219 11.101562 C 34.398438 11.101562 34.5 11.199219 34.601562 11.199219 C 34.699219 11.300781 34.800781 11.398438 34.800781 11.601562 Z M 34.800781 16 "/>
</g>
</svg>
