<?xml version="1.0" encoding="UTF-8"?>
<svg xmlns="http://www.w3.org/2000/svg" xmlns:xlink="http://www.w3.org/1999/xlink" width="50pt" height="78pt" viewBox="0 0 50 78" version="1.1">
<g id="surface1">
<path style=" stroke:none;fill-rule:nonzero;fill:rgb(0%,62.745098%,97.647059%);fill-opacity:1;" d="M 7.140625 55.347656 L 17.789062 49.179688 L 17.773438 53.28125 L 7.125 59.449219 Z M 7.140625 55.347656 "/>
<path style=" stroke:none;fill-rule:nonzero;fill:rgb(0%,62.745098%,97.647059%);fill-opacity:1;" d="M 3.5625 53.289062 L 14.210938 47.113281 L 17.789062 49.179688 L 7.140625 55.347656 Z M 3.5625 53.289062 "/>
<path style=" stroke:none;fill-rule:nonzero;fill:rgb(0%,62.745098%,97.647059%);fill-opacity:1;" d="M 7.140625 55.347656 L 7.125 59.449219 L 3.550781 57.394531 L 3.5625 53.289062 Z M 7.140625 55.347656 "/>
<path style=" stroke:none;fill-rule:nonzero;fill:rgb(0%,62.745098%,97.647059%);fill-opacity:1;" d="M 3.578125 45.09375 L 14.230469 38.921875 L 14.21875 43.019531 L 3.570312 49.195312 Z M 3.578125 45.09375 "/>
<path style=" stroke:none;fill-rule:nonzero;fill:rgb(0%,62.745098%,97.647059%);fill-opacity:1;" d="M 0.0078125 43.035156 L 10.65625 36.867188 L 14.230469 38.921875 L 3.578125 45.09375 Z M 0.0078125 43.035156 "/>
<path style=" stroke:none;fill-rule:nonzero;fill:rgb(0%,62.745098%,97.647059%);fill-opacity:1;" d="M 3.578125 45.09375 L 3.570312 49.195312 L 0 47.128906 L 0.0078125 43.035156 Z M 3.578125 45.09375 "/>
<path style=" stroke:none;fill-rule:nonzero;fill:rgb(0%,62.745098%,97.647059%);fill-opacity:1;" d="M 7.125 59.449219 L 17.773438 53.28125 L 21.34375 55.335938 L 10.703125 61.507812 Z M 7.125 59.449219 "/>
<path style=" stroke:none;fill-rule:nonzero;fill:rgb(0%,62.745098%,97.647059%);fill-opacity:1;" d="M 10.703125 61.507812 L 21.34375 55.335938 L 21.335938 59.433594 L 10.683594 65.601562 Z M 10.703125 61.507812 "/>
<path style=" stroke:none;fill-rule:nonzero;fill:rgb(0%,62.745098%,97.647059%);fill-opacity:1;" d="M 10.703125 61.507812 L 10.683594 65.601562 L 7.113281 63.546875 L 7.125 59.449219 Z M 10.703125 61.507812 "/>
<path style=" stroke:none;fill-rule:nonzero;fill:rgb(0%,62.745098%,97.647059%);fill-opacity:1;" d="M 17.835938 69.722656 L 28.484375 63.546875 L 28.46875 67.648438 L 17.816406 73.816406 Z M 17.835938 69.722656 "/>
<path style=" stroke:none;fill-rule:nonzero;fill:rgb(0%,62.745098%,97.647059%);fill-opacity:1;" d="M 17.835938 69.722656 L 17.816406 73.816406 L 14.246094 71.761719 L 14.265625 67.65625 Z M 17.835938 69.722656 "/>
<path style=" stroke:none;fill-rule:nonzero;fill:rgb(0%,62.745098%,97.647059%);fill-opacity:1;" d="M 14.265625 67.65625 L 24.90625 61.488281 L 28.484375 63.546875 L 17.835938 69.722656 Z M 14.265625 67.65625 "/>
<path style=" stroke:none;fill-rule:nonzero;fill:rgb(0%,62.745098%,97.647059%);fill-opacity:1;" d="M 14.273438 63.5625 L 14.265625 67.65625 L 10.683594 65.601562 L 10.703125 61.507812 Z M 14.273438 63.5625 "/>
<path style=" stroke:none;fill-rule:nonzero;fill:rgb(0%,62.745098%,97.647059%);fill-opacity:1;" d="M 14.273438 63.5625 L 24.921875 57.394531 L 24.90625 61.488281 L 14.265625 67.65625 Z M 14.273438 63.5625 "/>
<path style=" stroke:none;fill-rule:nonzero;fill:rgb(0%,62.745098%,97.647059%);fill-opacity:1;" d="M 14.273438 63.5625 L 24.921875 57.394531 L 28.492188 59.449219 L 17.84375 65.628906 Z M 14.273438 63.5625 "/>
<path style=" stroke:none;fill-rule:nonzero;fill:rgb(0%,62.745098%,97.647059%);fill-opacity:1;" d="M 10.703125 61.507812 L 21.34375 55.335938 L 24.921875 57.394531 L 14.273438 63.5625 Z M 10.703125 61.507812 "/>
<path style=" stroke:none;fill-rule:nonzero;fill:rgb(80%,0%,0%);fill-opacity:1;" d="M 10.710938 57.402344 L 21.363281 51.234375 L 21.34375 55.335938 L 10.703125 61.507812 Z M 10.710938 57.402344 "/>
<path style=" stroke:none;fill-rule:nonzero;fill:rgb(80%,0%,0%);fill-opacity:1;" d="M 10.710938 57.402344 L 10.703125 61.507812 L 7.125 59.449219 L 7.140625 55.347656 Z M 10.710938 57.402344 "/>
<path style=" stroke:none;fill-rule:nonzero;fill:rgb(80%,0%,0%);fill-opacity:1;" d="M 7.140625 55.347656 L 17.789062 49.179688 L 21.363281 51.234375 L 10.710938 57.402344 Z M 7.140625 55.347656 "/>
<path style=" stroke:none;fill-rule:nonzero;fill:rgb(0%,62.745098%,97.647059%);fill-opacity:1;" d="M 3.570312 49.195312 L 14.21875 43.019531 L 17.800781 45.082031 L 7.152344 51.253906 Z M 3.570312 49.195312 "/>
<path style=" stroke:none;fill-rule:nonzero;fill:rgb(0%,62.745098%,97.647059%);fill-opacity:1;" d="M 7.152344 51.253906 L 17.800781 45.082031 L 17.789062 49.179688 L 7.140625 55.347656 Z M 7.152344 51.253906 "/>
<path style=" stroke:none;fill-rule:nonzero;fill:rgb(0%,62.745098%,97.647059%);fill-opacity:1;" d="M 7.152344 51.253906 L 7.140625 55.347656 L 3.5625 53.289062 L 3.570312 49.195312 Z M 7.152344 51.253906 "/>
<path style=" stroke:none;fill-rule:nonzero;fill:rgb(0%,62.745098%,97.647059%);fill-opacity:1;" d="M 21.40625 71.78125 L 32.054688 65.601562 L 32.046875 69.703125 L 21.398438 75.882812 Z M 21.40625 71.78125 "/>
<path style=" stroke:none;fill-rule:nonzero;fill:rgb(0%,62.745098%,97.647059%);fill-opacity:1;" d="M 17.835938 69.722656 L 28.484375 63.546875 L 32.054688 65.601562 L 21.40625 71.78125 Z M 17.835938 69.722656 "/>
<path style=" stroke:none;fill-rule:nonzero;fill:rgb(0%,62.745098%,97.647059%);fill-opacity:1;" d="M 21.40625 71.78125 L 21.398438 75.882812 L 17.816406 73.816406 L 17.835938 69.722656 Z M 21.40625 71.78125 "/>
<path style=" stroke:none;fill-rule:nonzero;fill:rgb(0%,62.745098%,97.647059%);fill-opacity:1;" d="M 17.84375 65.628906 L 28.492188 59.449219 L 28.484375 63.546875 L 17.835938 69.722656 Z M 17.84375 65.628906 "/>
<path style=" stroke:none;fill-rule:nonzero;fill:rgb(0%,62.745098%,97.647059%);fill-opacity:1;" d="M 17.84375 65.628906 L 17.835938 69.722656 L 14.265625 67.65625 L 14.273438 63.5625 Z M 17.84375 65.628906 "/>
<path style=" stroke:none;fill-rule:nonzero;fill:rgb(80%,0%,0%);fill-opacity:1;" d="M 14.28125 59.46875 L 14.273438 63.5625 L 10.703125 61.507812 L 10.710938 57.402344 Z M 14.28125 59.46875 "/>
<path style=" stroke:none;fill-rule:nonzero;fill:rgb(80%,0%,0%);fill-opacity:1;" d="M 14.28125 59.46875 L 24.933594 53.289062 L 24.921875 57.394531 L 14.273438 63.5625 Z M 14.28125 59.46875 "/>
<path style=" stroke:none;fill-rule:nonzero;fill:rgb(80%,0%,0%);fill-opacity:1;" d="M 14.28125 59.46875 L 24.933594 53.289062 L 28.503906 55.347656 L 17.855469 61.523438 Z M 14.28125 59.46875 "/>
<path style=" stroke:none;fill-rule:nonzero;fill:rgb(80%,0%,0%);fill-opacity:1;" d="M 10.710938 57.402344 L 21.363281 51.234375 L 24.933594 53.289062 L 14.28125 59.46875 Z M 10.710938 57.402344 "/>
<path style=" stroke:none;fill-rule:nonzero;fill:rgb(80%,0%,0%);fill-opacity:1;" d="M 10.722656 53.308594 L 10.710938 57.402344 L 7.140625 55.347656 L 7.152344 51.253906 Z M 10.722656 53.308594 "/>
<path style=" stroke:none;fill-rule:nonzero;fill:rgb(80%,0%,0%);fill-opacity:1;" d="M 10.722656 53.308594 L 21.371094 47.140625 L 21.363281 51.234375 L 10.710938 57.402344 Z M 10.722656 53.308594 "/>
<path style=" stroke:none;fill-rule:nonzero;fill:rgb(80%,0%,0%);fill-opacity:1;" d="M 7.152344 51.253906 L 17.800781 45.082031 L 21.371094 47.140625 L 10.722656 53.308594 Z M 7.152344 51.253906 "/>
<path style=" stroke:none;fill-rule:nonzero;fill:rgb(100%,22.352941%,22.352941%);fill-opacity:1;" d="M 7.160156 47.15625 L 7.152344 51.253906 L 3.570312 49.195312 L 3.578125 45.09375 Z M 7.160156 47.15625 "/>
<path style=" stroke:none;fill-rule:nonzero;fill:rgb(100%,22.352941%,22.352941%);fill-opacity:1;" d="M 7.160156 47.15625 L 17.808594 40.980469 L 17.800781 45.082031 L 7.152344 51.253906 Z M 7.160156 47.15625 "/>
<path style=" stroke:none;fill-rule:nonzero;fill:rgb(100%,22.352941%,22.352941%);fill-opacity:1;" d="M 3.578125 45.09375 L 14.230469 38.921875 L 17.808594 40.980469 L 7.160156 47.15625 Z M 3.578125 45.09375 "/>
<path style=" stroke:none;fill-rule:nonzero;fill:rgb(0%,62.745098%,97.647059%);fill-opacity:1;" d="M 0.0273438 38.941406 L 10.667969 32.773438 L 14.230469 34.820312 L 3.578125 40.988281 Z M 0.0273438 38.941406 "/>
<path style=" stroke:none;fill-rule:nonzero;fill:rgb(0%,62.745098%,97.647059%);fill-opacity:1;" d="M 3.578125 40.988281 L 14.230469 34.820312 L 14.246094 34.828125 L 3.597656 40.996094 Z M 3.578125 40.988281 "/>
<path style=" stroke:none;fill-rule:nonzero;fill:rgb(0%,62.745098%,97.647059%);fill-opacity:1;" d="M 3.597656 40.996094 L 14.246094 34.828125 L 14.230469 38.921875 L 3.578125 45.09375 Z M 3.597656 40.996094 "/>
<path style=" stroke:none;fill-rule:nonzero;fill:rgb(0%,62.745098%,97.647059%);fill-opacity:1;" d="M 3.597656 40.996094 L 3.578125 45.09375 L 0.0078125 43.035156 L 0.0273438 38.941406 L 3.578125 40.988281 Z M 3.597656 40.996094 "/>
<path style=" stroke:none;fill-rule:nonzero;fill:rgb(80%,0%,0%);fill-opacity:1;" d="M 17.84375 65.628906 L 28.492188 59.449219 L 32.066406 61.507812 L 21.414062 67.683594 Z M 17.84375 65.628906 "/>
<path style=" stroke:none;fill-rule:nonzero;fill:rgb(80%,0%,0%);fill-opacity:1;" d="M 21.414062 67.683594 L 32.066406 61.507812 L 32.054688 65.601562 L 21.40625 71.78125 Z M 21.414062 67.683594 "/>
<path style=" stroke:none;fill-rule:nonzero;fill:rgb(80%,0%,0%);fill-opacity:1;" d="M 21.414062 67.683594 L 21.40625 71.78125 L 17.835938 69.722656 L 17.84375 65.628906 Z M 21.414062 67.683594 "/>
<path style=" stroke:none;fill-rule:nonzero;fill:rgb(80%,0%,0%);fill-opacity:1;" d="M 17.855469 61.523438 L 17.84375 65.628906 L 14.273438 63.5625 L 14.28125 59.46875 Z M 17.855469 61.523438 "/>
<path style=" stroke:none;fill-rule:nonzero;fill:rgb(80%,0%,0%);fill-opacity:1;" d="M 17.855469 61.523438 L 28.503906 55.347656 L 28.492188 59.449219 L 17.84375 65.628906 Z M 17.855469 61.523438 "/>
<path style=" stroke:none;fill-rule:nonzero;fill:rgb(100%,22.352941%,22.352941%);fill-opacity:1;" d="M 14.292969 55.363281 L 14.28125 59.46875 L 10.710938 57.402344 L 10.722656 53.308594 Z M 14.292969 55.363281 "/>
<path style=" stroke:none;fill-rule:nonzero;fill:rgb(100%,22.352941%,22.352941%);fill-opacity:1;" d="M 14.292969 55.363281 L 24.941406 49.195312 L 24.933594 53.289062 L 14.28125 59.46875 Z M 14.292969 55.363281 "/>
<path style=" stroke:none;fill-rule:nonzero;fill:rgb(100%,22.352941%,22.352941%);fill-opacity:1;" d="M 14.292969 55.363281 L 24.941406 49.195312 L 28.519531 51.253906 L 17.871094 57.429688 Z M 14.292969 55.363281 "/>
<path style=" stroke:none;fill-rule:nonzero;fill:rgb(100%,22.352941%,22.352941%);fill-opacity:1;" d="M 10.722656 53.308594 L 21.371094 47.140625 L 24.941406 49.195312 L 14.292969 55.363281 Z M 10.722656 53.308594 "/>
<path style=" stroke:none;fill-rule:nonzero;fill:rgb(100%,22.352941%,22.352941%);fill-opacity:1;" d="M 10.738281 49.214844 L 21.378906 43.046875 L 21.371094 47.140625 L 10.722656 53.308594 Z M 10.738281 49.214844 "/>
<path style=" stroke:none;fill-rule:nonzero;fill:rgb(100%,22.352941%,22.352941%);fill-opacity:1;" d="M 10.738281 49.214844 L 10.722656 53.308594 L 7.152344 51.253906 L 7.160156 47.15625 Z M 10.738281 49.214844 "/>
<path style=" stroke:none;fill-rule:nonzero;fill:rgb(100%,22.352941%,22.352941%);fill-opacity:1;" d="M 7.160156 47.15625 L 17.808594 40.980469 L 21.378906 43.046875 L 10.738281 49.214844 Z M 7.160156 47.15625 "/>
<path style=" stroke:none;fill-rule:nonzero;fill:rgb(100%,22.352941%,22.352941%);fill-opacity:1;" d="M 3.597656 40.996094 L 14.246094 34.828125 L 17.800781 36.875 L 7.152344 43.046875 Z M 3.597656 40.996094 "/>
<path style=" stroke:none;fill-rule:nonzero;fill:rgb(100%,22.352941%,22.352941%);fill-opacity:1;" d="M 7.167969 43.0625 L 7.160156 47.15625 L 3.578125 45.09375 L 3.597656 40.996094 L 7.152344 43.046875 Z M 7.167969 43.0625 "/>
<path style=" stroke:none;fill-rule:nonzero;fill:rgb(100%,22.352941%,22.352941%);fill-opacity:1;" d="M 7.152344 43.046875 L 17.800781 36.875 L 17.816406 36.886719 L 7.167969 43.0625 Z M 7.152344 43.046875 "/>
<path style=" stroke:none;fill-rule:nonzero;fill:rgb(100%,22.352941%,22.352941%);fill-opacity:1;" d="M 7.167969 43.0625 L 17.816406 36.886719 L 17.808594 40.980469 L 7.160156 47.15625 Z M 7.167969 43.0625 "/>
<path style=" stroke:none;fill-rule:nonzero;fill:rgb(0%,62.745098%,97.647059%);fill-opacity:1;" d="M 3.589844 36.894531 L 14.238281 30.714844 L 14.230469 34.820312 L 3.578125 40.988281 Z M 3.589844 36.894531 "/>
<path style=" stroke:none;fill-rule:nonzero;fill:rgb(0%,62.745098%,97.647059%);fill-opacity:1;" d="M 3.589844 36.894531 L 3.578125 40.988281 L 0.0273438 38.941406 L 0.0078125 38.933594 L 0.0195312 34.835938 Z M 3.589844 36.894531 "/>
<path style=" stroke:none;fill-rule:nonzero;fill:rgb(51.372549%,85.098039%,100%);fill-opacity:1;" d="M 0.0195312 34.835938 L 10.667969 28.660156 L 14.238281 30.714844 L 3.589844 36.894531 Z M 0.0195312 34.835938 "/>
<path style=" stroke:none;fill-rule:nonzero;fill:rgb(80%,0%,0%);fill-opacity:1;" d="M 17.855469 61.523438 L 28.503906 55.347656 L 32.074219 57.402344 L 21.425781 63.582031 Z M 17.855469 61.523438 "/>
<path style=" stroke:none;fill-rule:nonzero;fill:rgb(80%,0%,0%);fill-opacity:1;" d="M 21.425781 63.582031 L 21.414062 67.683594 L 17.84375 65.628906 L 17.855469 61.523438 Z M 21.425781 63.582031 "/>
<path style=" stroke:none;fill-rule:nonzero;fill:rgb(80%,0%,0%);fill-opacity:1;" d="M 21.425781 63.582031 L 32.074219 57.402344 L 32.066406 61.507812 L 21.414062 67.683594 Z M 21.425781 63.582031 "/>
<path style=" stroke:none;fill-rule:nonzero;fill:rgb(100%,22.352941%,22.352941%);fill-opacity:1;" d="M 17.871094 57.429688 L 17.855469 61.523438 L 14.28125 59.46875 L 14.292969 55.363281 Z M 17.871094 57.429688 "/>
<path style=" stroke:none;fill-rule:nonzero;fill:rgb(100%,22.352941%,22.352941%);fill-opacity:1;" d="M 17.871094 57.429688 L 28.519531 51.253906 L 28.503906 55.347656 L 17.855469 61.523438 Z M 17.871094 57.429688 "/>
<path style=" stroke:none;fill-rule:nonzero;fill:rgb(100%,22.352941%,22.352941%);fill-opacity:1;" d="M 14.308594 51.269531 L 24.960938 45.101562 L 24.941406 49.195312 L 14.292969 55.363281 Z M 14.308594 51.269531 "/>
<path style=" stroke:none;fill-rule:nonzero;fill:rgb(100%,22.352941%,22.352941%);fill-opacity:1;" d="M 14.308594 51.269531 L 24.960938 45.101562 L 28.53125 47.15625 L 17.882812 53.328125 Z M 14.308594 51.269531 "/>
<path style=" stroke:none;fill-rule:nonzero;fill:rgb(100%,22.352941%,22.352941%);fill-opacity:1;" d="M 10.738281 49.214844 L 21.378906 43.046875 L 24.960938 45.101562 L 14.308594 51.269531 Z M 10.738281 49.214844 "/>
<path style=" stroke:none;fill-rule:nonzero;fill:rgb(100%,22.352941%,22.352941%);fill-opacity:1;" d="M 14.308594 51.269531 L 14.292969 55.363281 L 10.722656 53.308594 L 10.738281 49.214844 Z M 14.308594 51.269531 "/>
<path style=" stroke:none;fill-rule:nonzero;fill:rgb(100%,100%,100%);fill-opacity:1;" d="M 7.167969 43.0625 L 17.816406 36.886719 L 21.378906 38.933594 L 10.730469 45.109375 Z M 7.167969 43.0625 "/>
<path style=" stroke:none;fill-rule:nonzero;fill:rgb(100%,100%,100%);fill-opacity:1;" d="M 10.75 45.121094 L 21.398438 38.949219 L 21.378906 43.046875 L 10.738281 49.214844 Z M 10.75 45.121094 "/>
<path style=" stroke:none;fill-rule:nonzero;fill:rgb(100%,100%,100%);fill-opacity:1;" d="M 10.730469 45.109375 L 21.378906 38.933594 L 21.398438 38.949219 L 10.75 45.121094 Z M 10.730469 45.109375 "/>
<path style=" stroke:none;fill-rule:nonzero;fill:rgb(100%,100%,100%);fill-opacity:1;" d="M 10.75 45.121094 L 10.738281 49.214844 L 7.160156 47.15625 L 7.167969 43.0625 L 10.730469 45.109375 Z M 10.75 45.121094 "/>
<path style=" stroke:none;fill-rule:nonzero;fill:rgb(100%,22.352941%,22.352941%);fill-opacity:1;" d="M 7.160156 38.949219 L 17.808594 32.78125 L 17.800781 36.875 L 7.152344 43.046875 Z M 7.160156 38.949219 "/>
<path style=" stroke:none;fill-rule:nonzero;fill:rgb(100%,22.352941%,22.352941%);fill-opacity:1;" d="M 3.589844 36.894531 L 14.238281 30.714844 L 17.808594 32.78125 L 7.160156 38.949219 Z M 3.589844 36.894531 "/>
<path style=" stroke:none;fill-rule:nonzero;fill:rgb(100%,22.352941%,22.352941%);fill-opacity:1;" d="M 7.160156 38.949219 L 7.152344 43.046875 L 3.597656 40.996094 L 3.578125 40.988281 L 3.589844 36.894531 Z M 7.160156 38.949219 "/>
<path style=" stroke:none;fill-rule:nonzero;fill:rgb(100%,22.352941%,22.352941%);fill-opacity:1;" d="M 21.441406 59.488281 L 32.09375 53.308594 L 32.074219 57.402344 L 21.425781 63.582031 Z M 21.441406 59.488281 "/>
<path style=" stroke:none;fill-rule:nonzero;fill:rgb(100%,22.352941%,22.352941%);fill-opacity:1;" d="M 21.441406 59.488281 L 21.425781 63.582031 L 17.855469 61.523438 L 17.871094 57.429688 Z M 21.441406 59.488281 "/>
<path style=" stroke:none;fill-rule:nonzero;fill:rgb(100%,22.352941%,22.352941%);fill-opacity:1;" d="M 17.871094 57.429688 L 28.519531 51.253906 L 32.09375 53.308594 L 21.441406 59.488281 Z M 17.871094 57.429688 "/>
<path style=" stroke:none;fill-rule:nonzero;fill:rgb(100%,22.352941%,22.352941%);fill-opacity:1;" d="M 17.882812 53.328125 L 28.53125 47.15625 L 28.519531 51.253906 L 17.871094 57.429688 Z M 17.882812 53.328125 "/>
<path style=" stroke:none;fill-rule:nonzero;fill:rgb(100%,22.352941%,22.352941%);fill-opacity:1;" d="M 17.882812 53.328125 L 17.871094 57.429688 L 14.292969 55.363281 L 14.308594 51.269531 Z M 17.882812 53.328125 "/>
<path style=" stroke:none;fill-rule:nonzero;fill:rgb(100%,100%,100%);fill-opacity:1;" d="M 10.75 45.121094 L 21.398438 38.949219 L 24.949219 40.996094 L 14.300781 47.167969 Z M 10.75 45.121094 "/>
<path style=" stroke:none;fill-rule:nonzero;fill:rgb(100%,100%,100%);fill-opacity:1;" d="M 14.300781 47.167969 L 24.949219 40.996094 L 24.96875 41.007812 L 14.320312 47.175781 Z M 14.300781 47.167969 "/>
<path style=" stroke:none;fill-rule:nonzero;fill:rgb(100%,100%,100%);fill-opacity:1;" d="M 14.320312 47.175781 L 24.96875 41.007812 L 24.960938 45.101562 L 14.308594 51.269531 Z M 14.320312 47.175781 "/>
<path style=" stroke:none;fill-rule:nonzero;fill:rgb(100%,100%,100%);fill-opacity:1;" d="M 14.320312 47.175781 L 14.308594 51.269531 L 10.738281 49.214844 L 10.75 45.121094 L 14.300781 47.167969 Z M 14.320312 47.175781 "/>
<path style=" stroke:none;fill-rule:nonzero;fill:rgb(100%,100%,100%);fill-opacity:1;" d="M 10.738281 41.015625 L 21.386719 34.835938 L 21.378906 38.933594 L 10.730469 45.109375 Z M 10.738281 41.015625 "/>
<path style=" stroke:none;fill-rule:nonzero;fill:rgb(100%,100%,100%);fill-opacity:1;" d="M 7.160156 38.949219 L 17.808594 32.78125 L 21.386719 34.835938 L 10.738281 41.015625 Z M 7.160156 38.949219 "/>
<path style=" stroke:none;fill-rule:nonzero;fill:rgb(100%,100%,100%);fill-opacity:1;" d="M 10.738281 41.015625 L 10.730469 45.109375 L 7.167969 43.0625 L 7.152344 43.046875 L 7.160156 38.949219 Z M 10.738281 41.015625 "/>
<path style=" stroke:none;fill-rule:nonzero;fill:rgb(0%,62.745098%,97.647059%);fill-opacity:1;" d="M 7.175781 34.847656 L 7.160156 38.949219 L 3.589844 36.894531 L 3.597656 32.789062 Z M 7.175781 34.847656 "/>
<path style=" stroke:none;fill-rule:nonzero;fill:rgb(0%,62.745098%,97.647059%);fill-opacity:1;" d="M 7.175781 34.847656 L 17.816406 28.679688 L 17.808594 32.78125 L 7.160156 38.949219 Z M 7.175781 34.847656 "/>
<path style=" stroke:none;fill-rule:nonzero;fill:rgb(0%,62.745098%,97.647059%);fill-opacity:1;" d="M 3.597656 32.789062 L 14.246094 26.621094 L 17.816406 28.679688 L 7.175781 34.847656 Z M 3.597656 32.789062 "/>
<path style=" stroke:none;fill-rule:nonzero;fill:rgb(100%,22.352941%,22.352941%);fill-opacity:1;" d="M 14.320312 47.175781 L 24.96875 41.007812 L 28.519531 43.054688 L 17.871094 49.222656 Z M 14.320312 47.175781 "/>
<path style=" stroke:none;fill-rule:nonzero;fill:rgb(100%,22.352941%,22.352941%);fill-opacity:1;" d="M 17.871094 49.222656 L 28.519531 43.054688 L 28.539062 43.0625 L 17.890625 49.230469 Z M 17.871094 49.222656 "/>
<path style=" stroke:none;fill-rule:nonzero;fill:rgb(100%,22.352941%,22.352941%);fill-opacity:1;" d="M 17.890625 49.230469 L 17.882812 53.328125 L 14.308594 51.269531 L 14.320312 47.175781 L 17.871094 49.222656 Z M 17.890625 49.230469 "/>
<path style=" stroke:none;fill-rule:nonzero;fill:rgb(100%,22.352941%,22.352941%);fill-opacity:1;" d="M 17.890625 49.230469 L 28.539062 43.0625 L 28.53125 47.15625 L 17.882812 53.328125 Z M 17.890625 49.230469 "/>
<path style=" stroke:none;fill-rule:nonzero;fill:rgb(100%,100%,100%);fill-opacity:1;" d="M 14.308594 43.070312 L 14.300781 47.167969 L 10.75 45.121094 L 10.730469 45.109375 L 10.738281 41.015625 Z M 14.308594 43.070312 "/>
<path style=" stroke:none;fill-rule:nonzero;fill:rgb(100%,100%,100%);fill-opacity:1;" d="M 14.308594 43.070312 L 24.960938 36.902344 L 24.949219 40.996094 L 14.300781 47.167969 Z M 14.308594 43.070312 "/>
<path style=" stroke:none;fill-rule:nonzero;fill:rgb(100%,100%,100%);fill-opacity:1;" d="M 10.738281 41.015625 L 21.386719 34.835938 L 24.960938 36.902344 L 14.308594 43.070312 Z M 10.738281 41.015625 "/>
<path style=" stroke:none;fill-rule:nonzero;fill:rgb(51.372549%,85.098039%,100%);fill-opacity:1;" d="M 10.75 36.914062 L 10.738281 41.015625 L 7.160156 38.949219 L 7.175781 34.847656 Z M 10.75 36.914062 "/>
<path style=" stroke:none;fill-rule:nonzero;fill:rgb(51.372549%,85.098039%,100%);fill-opacity:1;" d="M 10.75 36.914062 L 21.398438 30.742188 L 21.386719 34.835938 L 10.738281 41.015625 Z M 10.75 36.914062 "/>
<path style=" stroke:none;fill-rule:nonzero;fill:rgb(51.372549%,85.098039%,100%);fill-opacity:1;" d="M 7.175781 34.847656 L 17.816406 28.679688 L 21.398438 30.742188 L 10.75 36.914062 Z M 7.175781 34.847656 "/>
<path style=" stroke:none;fill-rule:nonzero;fill:rgb(51.372549%,85.098039%,100%);fill-opacity:1;" d="M 3.617188 28.695312 L 14.265625 22.527344 L 17.835938 24.582031 L 7.1875 30.753906 Z M 3.617188 28.695312 "/>
<path style=" stroke:none;fill-rule:nonzero;fill:rgb(0%,62.745098%,97.647059%);fill-opacity:1;" d="M 7.1875 30.753906 L 17.835938 24.582031 L 17.816406 28.679688 L 7.175781 34.847656 Z M 7.1875 30.753906 "/>
<path style=" stroke:none;fill-rule:nonzero;fill:rgb(0%,62.745098%,97.647059%);fill-opacity:1;" d="M 7.1875 30.753906 L 7.175781 34.847656 L 3.597656 32.789062 L 3.617188 28.695312 Z M 7.1875 30.753906 "/>
<path style=" stroke:none;fill-rule:nonzero;fill:rgb(100%,100%,100%);fill-opacity:1;" d="M 17.890625 45.128906 L 17.871094 49.222656 L 14.320312 47.175781 L 14.300781 47.167969 L 14.308594 43.070312 Z M 17.890625 45.128906 "/>
<path style=" stroke:none;fill-rule:nonzero;fill:rgb(100%,100%,100%);fill-opacity:1;" d="M 17.890625 45.128906 L 28.53125 38.960938 L 28.519531 43.054688 L 17.871094 49.222656 Z M 17.890625 45.128906 "/>
<path style=" stroke:none;fill-rule:nonzero;fill:rgb(100%,100%,100%);fill-opacity:1;" d="M 14.308594 43.070312 L 24.960938 36.902344 L 28.53125 38.960938 L 17.890625 45.128906 Z M 14.308594 43.070312 "/>
<path style=" stroke:none;fill-rule:nonzero;fill:rgb(100%,100%,100%);fill-opacity:1;" d="M 14.328125 38.96875 L 24.976562 32.800781 L 24.960938 36.902344 L 14.308594 43.070312 Z M 14.328125 38.96875 "/>
<path style=" stroke:none;fill-rule:nonzero;fill:rgb(100%,100%,100%);fill-opacity:1;" d="M 10.75 36.914062 L 21.398438 30.742188 L 24.976562 32.800781 L 14.328125 38.96875 Z M 10.75 36.914062 "/>
<path style=" stroke:none;fill-rule:nonzero;fill:rgb(100%,100%,100%);fill-opacity:1;" d="M 14.328125 38.96875 L 14.308594 43.070312 L 10.738281 41.015625 L 10.75 36.914062 Z M 14.328125 38.96875 "/>
<path style=" stroke:none;fill-rule:nonzero;fill:rgb(51.372549%,85.098039%,100%);fill-opacity:1;" d="M 10.765625 32.816406 L 21.40625 26.640625 L 21.398438 30.742188 L 10.75 36.914062 Z M 10.765625 32.816406 "/>
<path style=" stroke:none;fill-rule:nonzero;fill:rgb(51.372549%,85.098039%,100%);fill-opacity:1;" d="M 7.1875 30.753906 L 17.835938 24.582031 L 21.40625 26.640625 L 10.765625 32.816406 Z M 7.1875 30.753906 "/>
<path style=" stroke:none;fill-rule:nonzero;fill:rgb(51.372549%,85.098039%,100%);fill-opacity:1;" d="M 10.765625 32.816406 L 10.75 36.914062 L 7.175781 34.847656 L 7.1875 30.753906 Z M 10.765625 32.816406 "/>
<path style=" stroke:none;fill-rule:nonzero;fill:rgb(51.372549%,85.098039%,100%);fill-opacity:1;" d="M 14.335938 34.875 L 24.988281 28.703125 L 24.976562 32.800781 L 14.328125 38.96875 Z M 14.335938 34.875 "/>
<path style=" stroke:none;fill-rule:nonzero;fill:rgb(51.372549%,85.098039%,100%);fill-opacity:1;" d="M 10.765625 32.816406 L 21.40625 26.640625 L 24.988281 28.703125 L 14.335938 34.875 Z M 10.765625 32.816406 "/>
<path style=" stroke:none;fill-rule:nonzero;fill:rgb(51.372549%,85.098039%,100%);fill-opacity:1;" d="M 14.335938 34.875 L 14.328125 38.96875 L 10.75 36.914062 L 10.765625 32.816406 Z M 14.335938 34.875 "/>
<path style=" stroke:none;fill-rule:nonzero;fill:rgb(0%,62.745098%,97.647059%);fill-opacity:1;" d="M 10.777344 28.714844 L 10.765625 32.816406 L 7.1875 30.753906 L 7.195312 26.648438 Z M 10.777344 28.714844 "/>
<path style=" stroke:none;fill-rule:nonzero;fill:rgb(0%,62.745098%,97.647059%);fill-opacity:1;" d="M 10.777344 28.714844 L 21.425781 22.535156 L 21.40625 26.640625 L 10.765625 32.816406 Z M 10.777344 28.714844 "/>
<path style=" stroke:none;fill-rule:nonzero;fill:rgb(51.372549%,85.098039%,100%);fill-opacity:1;" d="M 7.195312 26.648438 L 17.84375 20.480469 L 21.425781 22.535156 L 10.777344 28.714844 Z M 7.195312 26.648438 "/>
<path style=" stroke:none;fill-rule:nonzero;fill:rgb(0%,54.509804%,73.72549%);fill-opacity:1;" d="M 24.988281 73.84375 L 35.636719 67.667969 L 35.625 71.769531 L 24.976562 77.949219 Z M 24.988281 73.84375 "/>
<path style=" stroke:none;fill-rule:nonzero;fill:rgb(0%,62.745098%,97.647059%);fill-opacity:1;" d="M 21.414062 71.789062 L 32.066406 65.609375 L 35.636719 67.667969 L 24.988281 73.84375 Z M 21.414062 71.789062 "/>
<path style=" stroke:none;fill-rule:nonzero;fill:rgb(0%,62.745098%,97.647059%);fill-opacity:1;" d="M 24.988281 73.84375 L 24.976562 77.949219 L 21.40625 75.890625 L 21.414062 71.789062 Z M 24.988281 73.84375 "/>
<path style=" stroke:none;fill-rule:nonzero;fill:rgb(0%,62.745098%,97.647059%);fill-opacity:1;" d="M 25.003906 69.75 L 35.652344 63.570312 L 35.636719 67.667969 L 24.988281 73.84375 Z M 25.003906 69.75 "/>
<path style=" stroke:none;fill-rule:nonzero;fill:rgb(0%,62.745098%,97.647059%);fill-opacity:1;" d="M 21.425781 67.695312 L 32.074219 61.515625 L 35.652344 63.570312 L 25.003906 69.75 Z M 21.425781 67.695312 "/>
<path style=" stroke:none;fill-rule:nonzero;fill:rgb(0%,62.745098%,97.647059%);fill-opacity:1;" d="M 25.003906 69.75 L 24.988281 73.84375 L 21.414062 71.789062 L 21.425781 67.695312 Z M 25.003906 69.75 "/>
<path style=" stroke:none;fill-rule:nonzero;fill:rgb(0%,62.745098%,97.647059%);fill-opacity:1;" d="M 28.585938 71.804688 L 39.222656 65.636719 L 39.214844 69.730469 L 28.566406 75.902344 Z M 28.585938 71.804688 "/>
<path style=" stroke:none;fill-rule:nonzero;fill:rgb(0%,62.745098%,97.647059%);fill-opacity:1;" d="M 25.003906 69.75 L 35.652344 63.570312 L 39.222656 65.636719 L 28.585938 71.804688 Z M 25.003906 69.75 "/>
<path style=" stroke:none;fill-rule:nonzero;fill:rgb(0%,62.745098%,97.647059%);fill-opacity:1;" d="M 28.585938 71.804688 L 28.566406 75.902344 L 24.988281 73.84375 L 25.003906 69.75 Z M 28.585938 71.804688 "/>
<path style=" stroke:none;fill-rule:nonzero;fill:rgb(100%,22.352941%,22.352941%);fill-opacity:1;" d="M 21.453125 55.390625 L 32.101562 49.214844 L 32.09375 53.308594 L 21.441406 59.488281 Z M 21.453125 55.390625 "/>
<path style=" stroke:none;fill-rule:nonzero;fill:rgb(100%,22.352941%,22.352941%);fill-opacity:1;" d="M 17.882812 53.328125 L 28.53125 47.15625 L 32.101562 49.214844 L 21.453125 55.390625 Z M 17.882812 53.328125 "/>
<path style=" stroke:none;fill-rule:nonzero;fill:rgb(100%,22.352941%,22.352941%);fill-opacity:1;" d="M 21.453125 55.390625 L 21.441406 59.488281 L 17.871094 57.429688 L 17.882812 53.328125 Z M 21.453125 55.390625 "/>
<path style=" stroke:none;fill-rule:nonzero;fill:rgb(80%,0%,0%);fill-opacity:1;" d="M 25.011719 65.644531 L 35.664062 59.46875 L 35.652344 63.570312 L 25.003906 69.75 Z M 25.011719 65.644531 "/>
<path style=" stroke:none;fill-rule:nonzero;fill:rgb(80%,0%,0%);fill-opacity:1;" d="M 21.441406 63.589844 L 32.09375 57.414062 L 35.664062 59.46875 L 25.011719 65.644531 Z M 21.441406 63.589844 "/>
<path style=" stroke:none;fill-rule:nonzero;fill:rgb(80%,0%,0%);fill-opacity:1;" d="M 25.011719 65.644531 L 25.003906 69.75 L 21.425781 67.695312 L 21.441406 63.589844 Z M 25.011719 65.644531 "/>
<path style=" stroke:none;fill-rule:nonzero;fill:rgb(100%,100%,100%);fill-opacity:1;" d="M 17.898438 41.023438 L 28.546875 34.855469 L 28.53125 38.960938 L 17.890625 45.128906 Z M 17.898438 41.023438 "/>
<path style=" stroke:none;fill-rule:nonzero;fill:rgb(100%,100%,100%);fill-opacity:1;" d="M 14.328125 38.96875 L 24.976562 32.800781 L 28.546875 34.855469 L 17.898438 41.023438 Z M 14.328125 38.96875 "/>
<path style=" stroke:none;fill-rule:nonzero;fill:rgb(100%,100%,100%);fill-opacity:1;" d="M 17.898438 41.023438 L 17.890625 45.128906 L 14.308594 43.070312 L 14.328125 38.96875 Z M 17.898438 41.023438 "/>
<path style=" stroke:none;fill-rule:nonzero;fill:rgb(51.372549%,85.098039%,100%);fill-opacity:1;" d="M 17.90625 36.929688 L 17.898438 41.023438 L 14.328125 38.96875 L 14.335938 34.875 Z M 17.90625 36.929688 "/>
<path style=" stroke:none;fill-rule:nonzero;fill:rgb(51.372549%,85.098039%,100%);fill-opacity:1;" d="M 17.90625 36.929688 L 28.558594 30.761719 L 28.546875 34.855469 L 17.898438 41.023438 Z M 17.90625 36.929688 "/>
<path style=" stroke:none;fill-rule:nonzero;fill:rgb(51.372549%,85.098039%,100%);fill-opacity:1;" d="M 14.335938 34.875 L 24.988281 28.703125 L 28.558594 30.761719 L 17.90625 36.929688 Z M 14.335938 34.875 "/>
<path style=" stroke:none;fill-rule:nonzero;fill:rgb(0%,62.745098%,97.647059%);fill-opacity:1;" d="M 14.347656 30.769531 L 24.996094 24.601562 L 24.988281 28.703125 L 14.335938 34.875 Z M 14.347656 30.769531 "/>
<path style=" stroke:none;fill-rule:nonzero;fill:rgb(51.372549%,85.098039%,100%);fill-opacity:1;" d="M 10.777344 28.714844 L 21.425781 22.535156 L 24.996094 24.601562 L 14.347656 30.769531 Z M 10.777344 28.714844 "/>
<path style=" stroke:none;fill-rule:nonzero;fill:rgb(0%,62.745098%,97.647059%);fill-opacity:1;" d="M 14.347656 30.769531 L 14.335938 34.875 L 10.765625 32.816406 L 10.777344 28.714844 Z M 14.347656 30.769531 "/>
<path style=" stroke:none;fill-rule:nonzero;fill:rgb(0%,62.745098%,97.647059%);fill-opacity:1;" d="M 17.917969 32.828125 L 28.566406 26.65625 L 28.558594 30.761719 L 17.90625 36.929688 Z M 17.917969 32.828125 "/>
<path style=" stroke:none;fill-rule:nonzero;fill:rgb(0%,62.745098%,97.647059%);fill-opacity:1;" d="M 14.347656 30.769531 L 24.996094 24.601562 L 28.566406 26.65625 L 17.917969 32.828125 Z M 14.347656 30.769531 "/>
<path style=" stroke:none;fill-rule:nonzero;fill:rgb(0%,62.745098%,97.647059%);fill-opacity:1;" d="M 17.917969 32.828125 L 17.90625 36.929688 L 14.335938 34.875 L 14.347656 30.769531 Z M 17.917969 32.828125 "/>
<path style=" stroke:none;fill-rule:nonzero;fill:rgb(0%,62.745098%,97.647059%);fill-opacity:1;" d="M 14.382812 18.488281 L 25.03125 12.308594 L 25.023438 16.402344 L 14.375 22.582031 Z M 14.382812 18.488281 "/>
<path style=" stroke:none;fill-rule:nonzero;fill:rgb(0%,62.745098%,97.647059%);fill-opacity:1;" d="M 10.8125 16.429688 L 21.460938 10.253906 L 25.03125 12.308594 L 14.382812 18.488281 Z M 10.8125 16.429688 "/>
<path style=" stroke:none;fill-rule:nonzero;fill:rgb(0%,62.745098%,97.647059%);fill-opacity:1;" d="M 14.382812 18.488281 L 14.375 22.582031 L 10.804688 20.523438 L 10.8125 16.429688 Z M 14.382812 18.488281 "/>
<path style=" stroke:none;fill-rule:nonzero;fill:rgb(0%,62.745098%,97.647059%);fill-opacity:1;" d="M 17.933594 28.730469 L 28.574219 22.5625 L 28.566406 26.65625 L 17.917969 32.828125 Z M 17.933594 28.730469 "/>
<path style=" stroke:none;fill-rule:nonzero;fill:rgb(0%,62.745098%,97.647059%);fill-opacity:1;" d="M 14.355469 26.675781 L 25.003906 20.507812 L 28.574219 22.5625 L 17.933594 28.730469 Z M 14.355469 26.675781 "/>
<path style=" stroke:none;fill-rule:nonzero;fill:rgb(0%,62.745098%,97.647059%);fill-opacity:1;" d="M 17.933594 28.730469 L 17.917969 32.828125 L 14.347656 30.769531 L 14.355469 26.675781 Z M 17.933594 28.730469 "/>
<path style=" stroke:none;fill-rule:nonzero;fill:rgb(0%,62.745098%,97.647059%);fill-opacity:1;" d="M 32.15625 73.863281 L 42.804688 67.695312 L 42.785156 71.789062 L 32.136719 77.964844 Z M 32.15625 73.863281 "/>
<path style=" stroke:none;fill-rule:nonzero;fill:rgb(0%,62.745098%,97.647059%);fill-opacity:1;" d="M 28.585938 71.804688 L 39.222656 65.636719 L 42.804688 67.695312 L 32.15625 73.863281 Z M 28.585938 71.804688 "/>
<path style=" stroke:none;fill-rule:nonzero;fill:rgb(0%,62.745098%,97.647059%);fill-opacity:1;" d="M 32.15625 73.863281 L 32.136719 77.964844 L 28.566406 75.902344 L 28.585938 71.804688 Z M 32.15625 73.863281 "/>
<path style=" stroke:none;fill-rule:nonzero;fill:rgb(80%,0%,0%);fill-opacity:1;" d="M 28.59375 67.703125 L 39.242188 61.535156 L 39.222656 65.636719 L 28.585938 71.804688 Z M 28.59375 67.703125 "/>
<path style=" stroke:none;fill-rule:nonzero;fill:rgb(80%,0%,0%);fill-opacity:1;" d="M 25.011719 65.644531 L 35.664062 59.46875 L 39.242188 61.535156 L 28.59375 67.703125 Z M 25.011719 65.644531 "/>
<path style=" stroke:none;fill-rule:nonzero;fill:rgb(80%,0%,0%);fill-opacity:1;" d="M 28.59375 67.703125 L 28.585938 71.804688 L 25.003906 69.75 L 25.011719 65.644531 Z M 28.59375 67.703125 "/>
<path style=" stroke:none;fill-rule:nonzero;fill:rgb(100%,22.352941%,22.352941%);fill-opacity:1;" d="M 25.023438 61.550781 L 25.011719 65.644531 L 21.441406 63.589844 L 21.453125 59.496094 Z M 25.023438 61.550781 "/>
<path style=" stroke:none;fill-rule:nonzero;fill:rgb(100%,22.352941%,22.352941%);fill-opacity:1;" d="M 25.023438 61.550781 L 35.671875 55.375 L 35.664062 59.46875 L 25.011719 65.644531 Z M 25.023438 61.550781 "/>
<path style=" stroke:none;fill-rule:nonzero;fill:rgb(100%,22.352941%,22.352941%);fill-opacity:1;" d="M 21.453125 59.496094 L 32.101562 53.316406 L 35.671875 55.375 L 25.023438 61.550781 Z M 21.453125 59.496094 "/>
<path style=" stroke:none;fill-rule:nonzero;fill:rgb(80%,0%,0%);fill-opacity:1;" d="M 32.164062 69.757812 L 42.8125 63.589844 L 42.804688 67.695312 L 32.15625 73.863281 Z M 32.164062 69.757812 "/>
<path style=" stroke:none;fill-rule:nonzero;fill:rgb(80%,0%,0%);fill-opacity:1;" d="M 28.59375 67.703125 L 39.242188 61.535156 L 42.8125 63.589844 L 32.164062 69.757812 Z M 28.59375 67.703125 "/>
<path style=" stroke:none;fill-rule:nonzero;fill:rgb(80%,0%,0%);fill-opacity:1;" d="M 32.164062 69.757812 L 32.15625 73.863281 L 28.585938 71.804688 L 28.59375 67.703125 Z M 32.164062 69.757812 "/>
<path style=" stroke:none;fill-rule:nonzero;fill:rgb(80%,0%,0%);fill-opacity:1;" d="M 25.023438 61.550781 L 35.671875 55.375 L 39.25 57.4375 L 28.601562 63.609375 Z M 25.023438 61.550781 "/>
<path style=" stroke:none;fill-rule:nonzero;fill:rgb(80%,0%,0%);fill-opacity:1;" d="M 28.601562 63.609375 L 39.25 57.4375 L 39.242188 61.535156 L 28.59375 67.703125 Z M 28.601562 63.609375 "/>
<path style=" stroke:none;fill-rule:nonzero;fill:rgb(80%,0%,0%);fill-opacity:1;" d="M 28.601562 63.609375 L 28.59375 67.703125 L 25.011719 65.644531 L 25.023438 61.550781 Z M 28.601562 63.609375 "/>
<path style=" stroke:none;fill-rule:nonzero;fill:rgb(100%,22.352941%,22.352941%);fill-opacity:1;" d="M 25.039062 57.457031 L 35.691406 51.277344 L 35.671875 55.375 L 25.023438 61.550781 Z M 25.039062 57.457031 "/>
<path style=" stroke:none;fill-rule:nonzero;fill:rgb(100%,22.352941%,22.352941%);fill-opacity:1;" d="M 21.460938 55.390625 L 32.109375 49.222656 L 35.691406 51.277344 L 25.039062 57.457031 Z M 21.460938 55.390625 "/>
<path style=" stroke:none;fill-rule:nonzero;fill:rgb(100%,22.352941%,22.352941%);fill-opacity:1;" d="M 25.039062 57.457031 L 25.023438 61.550781 L 21.453125 59.496094 L 21.460938 55.390625 Z M 25.039062 57.457031 "/>
<path style=" stroke:none;fill-rule:nonzero;fill:rgb(100%,22.352941%,22.352941%);fill-opacity:1;" d="M 17.890625 49.230469 L 28.539062 43.0625 L 32.09375 45.109375 L 21.453125 51.277344 Z M 17.890625 49.230469 "/>
<path style=" stroke:none;fill-rule:nonzero;fill:rgb(100%,22.352941%,22.352941%);fill-opacity:1;" d="M 21.460938 51.289062 L 32.109375 45.121094 L 32.101562 49.214844 L 21.453125 55.390625 Z M 21.460938 51.289062 "/>
<path style=" stroke:none;fill-rule:nonzero;fill:rgb(100%,22.352941%,22.352941%);fill-opacity:1;" d="M 21.460938 51.289062 L 21.453125 55.390625 L 17.882812 53.328125 L 17.890625 49.230469 L 21.453125 51.277344 Z M 21.460938 51.289062 "/>
<path style=" stroke:none;fill-rule:nonzero;fill:rgb(100%,22.352941%,22.352941%);fill-opacity:1;" d="M 21.460938 47.183594 L 32.109375 41.015625 L 32.09375 45.109375 L 21.453125 51.277344 Z M 21.460938 47.183594 "/>
<path style=" stroke:none;fill-rule:nonzero;fill:rgb(51.372549%,85.098039%,100%);fill-opacity:1;" d="M 21.46875 47.195312 L 32.117188 41.023438 L 32.109375 45.121094 L 21.460938 51.289062 Z M 21.46875 47.195312 "/>
<path style=" stroke:none;fill-rule:nonzero;fill:rgb(100%,22.352941%,22.352941%);fill-opacity:1;" d="M 21.453125 51.277344 L 32.09375 45.109375 L 32.109375 45.121094 L 21.460938 51.289062 Z M 21.453125 51.277344 "/>
<path style=" stroke:none;fill-rule:nonzero;fill:rgb(80%,0%,0%);fill-opacity:1;" d="M 32.171875 65.664062 L 32.164062 69.757812 L 28.59375 67.703125 L 28.601562 63.609375 Z M 32.171875 65.664062 "/>
<path style=" stroke:none;fill-rule:nonzero;fill:rgb(80%,0%,0%);fill-opacity:1;" d="M 32.171875 65.664062 L 42.824219 59.496094 L 42.8125 63.589844 L 32.164062 69.757812 Z M 32.171875 65.664062 "/>
<path style=" stroke:none;fill-rule:nonzero;fill:rgb(80%,0%,0%);fill-opacity:1;" d="M 28.601562 63.609375 L 39.25 57.4375 L 42.824219 59.496094 L 32.171875 65.664062 Z M 28.601562 63.609375 "/>
<path style=" stroke:none;fill-rule:nonzero;fill:rgb(100%,22.352941%,22.352941%);fill-opacity:1;" d="M 28.613281 59.511719 L 39.261719 53.34375 L 39.25 57.4375 L 28.601562 63.609375 Z M 28.613281 59.511719 "/>
<path style=" stroke:none;fill-rule:nonzero;fill:rgb(100%,22.352941%,22.352941%);fill-opacity:1;" d="M 25.039062 57.457031 L 35.691406 51.277344 L 39.261719 53.34375 L 28.613281 59.511719 Z M 25.039062 57.457031 "/>
<path style=" stroke:none;fill-rule:nonzero;fill:rgb(100%,22.352941%,22.352941%);fill-opacity:1;" d="M 28.613281 59.511719 L 28.601562 63.609375 L 25.023438 61.550781 L 25.039062 57.457031 Z M 28.613281 59.511719 "/>
<path style=" stroke:none;fill-rule:nonzero;fill:rgb(100%,22.352941%,22.352941%);fill-opacity:1;" d="M 21.480469 51.296875 L 32.117188 45.128906 L 35.679688 47.175781 L 25.03125 53.34375 Z M 21.480469 51.296875 "/>
<path style=" stroke:none;fill-rule:nonzero;fill:rgb(100%,22.352941%,22.352941%);fill-opacity:1;" d="M 25.03125 53.34375 L 35.679688 47.175781 L 35.699219 47.183594 L 25.050781 53.363281 Z M 25.03125 53.34375 "/>
<path style=" stroke:none;fill-rule:nonzero;fill:rgb(100%,22.352941%,22.352941%);fill-opacity:1;" d="M 25.050781 53.363281 L 35.699219 47.183594 L 35.691406 51.277344 L 25.039062 57.457031 Z M 25.050781 53.363281 "/>
<path style=" stroke:none;fill-rule:nonzero;fill:rgb(100%,22.352941%,22.352941%);fill-opacity:1;" d="M 25.050781 53.363281 L 25.039062 57.457031 L 21.460938 55.390625 L 21.480469 51.296875 L 25.03125 53.34375 Z M 25.050781 53.363281 "/>
<path style=" stroke:none;fill-rule:nonzero;fill:rgb(100%,22.352941%,22.352941%);fill-opacity:1;" d="M 21.460938 47.183594 L 21.453125 51.277344 L 17.890625 49.230469 L 17.871094 49.222656 L 17.890625 45.128906 Z M 21.460938 47.183594 "/>
<path style=" stroke:none;fill-rule:nonzero;fill:rgb(100%,22.352941%,22.352941%);fill-opacity:1;" d="M 17.890625 45.128906 L 28.53125 38.960938 L 32.109375 41.015625 L 21.460938 47.183594 Z M 17.890625 45.128906 "/>
<path style=" stroke:none;fill-rule:nonzero;fill:rgb(80%,0%,0%);fill-opacity:1;" d="M 28.613281 59.511719 L 39.261719 53.34375 L 42.832031 55.402344 L 32.191406 61.570312 Z M 28.613281 59.511719 "/>
<path style=" stroke:none;fill-rule:nonzero;fill:rgb(80%,0%,0%);fill-opacity:1;" d="M 32.191406 61.570312 L 32.171875 65.664062 L 28.601562 63.609375 L 28.613281 59.511719 Z M 32.191406 61.570312 "/>
<path style=" stroke:none;fill-rule:nonzero;fill:rgb(80%,0%,0%);fill-opacity:1;" d="M 32.191406 61.570312 L 42.832031 55.402344 L 42.824219 59.496094 L 32.171875 65.664062 Z M 32.191406 61.570312 "/>
<path style=" stroke:none;fill-rule:nonzero;fill:rgb(100%,22.352941%,22.352941%);fill-opacity:1;" d="M 25.050781 53.363281 L 35.699219 47.183594 L 39.261719 49.230469 L 28.613281 55.410156 Z M 25.050781 53.363281 "/>
<path style=" stroke:none;fill-rule:nonzero;fill:rgb(100%,22.352941%,22.352941%);fill-opacity:1;" d="M 28.613281 55.410156 L 39.261719 49.230469 L 39.277344 49.242188 L 28.628906 55.417969 Z M 28.613281 55.410156 "/>
<path style=" stroke:none;fill-rule:nonzero;fill:rgb(100%,22.352941%,22.352941%);fill-opacity:1;" d="M 28.628906 55.417969 L 39.277344 49.242188 L 39.261719 53.34375 L 28.613281 59.511719 Z M 28.628906 55.417969 "/>
<path style=" stroke:none;fill-rule:nonzero;fill:rgb(100%,22.352941%,22.352941%);fill-opacity:1;" d="M 28.628906 55.417969 L 28.613281 59.511719 L 25.039062 57.457031 L 25.050781 53.363281 L 28.613281 55.410156 Z M 28.628906 55.417969 "/>
<path style=" stroke:none;fill-rule:nonzero;fill:rgb(100%,22.352941%,22.352941%);fill-opacity:1;" d="M 25.039062 49.25 L 25.03125 53.34375 L 21.480469 51.296875 L 21.460938 51.296875 L 21.46875 47.195312 Z M 25.039062 49.25 "/>
<path style=" stroke:none;fill-rule:nonzero;fill:rgb(100%,22.352941%,22.352941%);fill-opacity:1;" d="M 21.46875 47.195312 L 32.117188 41.023438 L 35.691406 43.082031 L 25.039062 49.25 Z M 21.46875 47.195312 "/>
<path style=" stroke:none;fill-rule:nonzero;fill:rgb(100%,22.352941%,22.352941%);fill-opacity:1;" d="M 25.039062 49.25 L 35.691406 43.082031 L 35.679688 47.175781 L 25.03125 53.34375 Z M 25.039062 49.25 "/>
<path style=" stroke:none;fill-rule:nonzero;fill:rgb(51.372549%,85.098039%,100%);fill-opacity:1;" d="M 17.898438 41.023438 L 28.546875 34.855469 L 32.117188 36.914062 L 21.46875 43.082031 Z M 17.898438 41.023438 "/>
<path style=" stroke:none;fill-rule:nonzero;fill:rgb(51.372549%,85.098039%,100%);fill-opacity:1;" d="M 21.46875 43.082031 L 21.460938 47.183594 L 17.890625 45.128906 L 17.898438 41.023438 Z M 21.46875 43.082031 "/>
<path style=" stroke:none;fill-rule:nonzero;fill:rgb(51.372549%,85.098039%,100%);fill-opacity:1;" d="M 21.46875 43.082031 L 32.117188 36.914062 L 32.109375 41.015625 L 21.460938 47.183594 Z M 21.46875 43.082031 "/>
<path style=" stroke:none;fill-rule:nonzero;fill:rgb(51.372549%,85.098039%,100%);fill-opacity:1;" d="M 21.480469 43.089844 L 32.128906 36.921875 L 32.117188 41.023438 L 21.46875 47.195312 Z M 21.480469 43.089844 "/>
<path style=" stroke:none;fill-rule:nonzero;fill:rgb(80%,0%,0%);fill-opacity:1;" d="M 28.628906 55.417969 L 39.277344 49.242188 L 42.832031 51.296875 L 32.183594 57.464844 Z M 28.628906 55.417969 "/>
<path style=" stroke:none;fill-rule:nonzero;fill:rgb(80%,0%,0%);fill-opacity:1;" d="M 32.199219 57.476562 L 42.847656 51.304688 L 42.832031 55.402344 L 32.191406 61.570312 Z M 32.199219 57.476562 "/>
<path style=" stroke:none;fill-rule:nonzero;fill:rgb(80%,0%,0%);fill-opacity:1;" d="M 32.199219 57.476562 L 32.191406 61.570312 L 28.613281 59.511719 L 28.628906 55.417969 L 32.183594 57.464844 Z M 32.199219 57.476562 "/>
<path style=" stroke:none;fill-rule:nonzero;fill:rgb(80%,0%,0%);fill-opacity:1;" d="M 32.183594 57.464844 L 42.832031 51.296875 L 42.847656 51.304688 L 32.199219 57.476562 Z M 32.183594 57.464844 "/>
<path style=" stroke:none;fill-rule:nonzero;fill:rgb(100%,22.352941%,22.352941%);fill-opacity:1;" d="M 28.621094 51.316406 L 39.269531 45.136719 L 39.261719 49.230469 L 28.613281 55.410156 Z M 28.621094 51.316406 "/>
<path style=" stroke:none;fill-rule:nonzero;fill:rgb(100%,22.352941%,22.352941%);fill-opacity:1;" d="M 28.621094 51.316406 L 28.613281 55.410156 L 25.050781 53.363281 L 25.03125 53.34375 L 25.039062 49.25 Z M 28.621094 51.316406 "/>
<path style=" stroke:none;fill-rule:nonzero;fill:rgb(100%,22.352941%,22.352941%);fill-opacity:1;" d="M 25.039062 49.25 L 35.691406 43.082031 L 39.269531 45.136719 L 28.621094 51.316406 Z M 25.039062 49.25 "/>
<path style=" stroke:none;fill-rule:nonzero;fill:rgb(51.372549%,85.098039%,100%);fill-opacity:1;" d="M 25.058594 45.144531 L 35.699219 38.976562 L 35.691406 43.082031 L 25.039062 49.25 Z M 25.058594 45.144531 "/>
<path style=" stroke:none;fill-rule:nonzero;fill:rgb(51.372549%,85.098039%,100%);fill-opacity:1;" d="M 21.480469 43.089844 L 32.128906 36.921875 L 35.699219 38.976562 L 25.058594 45.144531 Z M 21.480469 43.089844 "/>
<path style=" stroke:none;fill-rule:nonzero;fill:rgb(51.372549%,85.098039%,100%);fill-opacity:1;" d="M 25.058594 45.144531 L 25.039062 49.25 L 21.46875 47.195312 L 21.480469 43.089844 Z M 25.058594 45.144531 "/>
<path style=" stroke:none;fill-rule:nonzero;fill:rgb(51.372549%,85.098039%,100%);fill-opacity:1;" d="M 17.90625 36.929688 L 28.558594 30.761719 L 32.128906 32.816406 L 21.480469 38.988281 Z M 17.90625 36.929688 "/>
<path style=" stroke:none;fill-rule:nonzero;fill:rgb(51.372549%,85.098039%,100%);fill-opacity:1;" d="M 21.480469 38.988281 L 21.46875 43.082031 L 17.898438 41.023438 L 17.90625 36.929688 Z M 21.480469 38.988281 "/>
<path style=" stroke:none;fill-rule:nonzero;fill:rgb(51.372549%,85.098039%,100%);fill-opacity:1;" d="M 21.480469 38.988281 L 32.128906 32.816406 L 32.117188 36.914062 L 21.46875 43.082031 Z M 21.480469 38.988281 "/>
<path style=" stroke:none;fill-rule:nonzero;fill:rgb(51.372549%,85.098039%,100%);fill-opacity:1;" d="M 21.496094 38.996094 L 32.136719 32.828125 L 32.128906 36.921875 L 21.480469 43.089844 Z M 21.496094 38.996094 "/>
<path style=" stroke:none;fill-rule:nonzero;fill:rgb(80%,0%,0%);fill-opacity:1;" d="M 32.191406 53.371094 L 32.183594 57.464844 L 28.628906 55.417969 L 28.613281 55.410156 L 28.621094 51.316406 Z M 32.191406 53.371094 "/>
<path style=" stroke:none;fill-rule:nonzero;fill:rgb(80%,0%,0%);fill-opacity:1;" d="M 32.191406 53.371094 L 42.839844 47.195312 L 42.832031 51.296875 L 32.183594 57.464844 Z M 32.191406 53.371094 "/>
<path style=" stroke:none;fill-rule:nonzero;fill:rgb(80%,0%,0%);fill-opacity:1;" d="M 28.621094 51.316406 L 39.269531 45.136719 L 42.839844 47.195312 L 32.191406 53.371094 Z M 28.621094 51.316406 "/>
<path style=" stroke:none;fill-rule:nonzero;fill:rgb(51.372549%,85.098039%,100%);fill-opacity:1;" d="M 25.058594 45.144531 L 35.699219 38.976562 L 39.277344 41.042969 L 28.628906 47.210938 Z M 25.058594 45.144531 "/>
<path style=" stroke:none;fill-rule:nonzero;fill:rgb(51.372549%,85.098039%,100%);fill-opacity:1;" d="M 28.628906 47.210938 L 39.277344 41.042969 L 39.269531 45.136719 L 28.621094 51.316406 Z M 28.628906 47.210938 "/>
<path style=" stroke:none;fill-rule:nonzero;fill:rgb(51.372549%,85.098039%,100%);fill-opacity:1;" d="M 28.628906 47.210938 L 28.621094 51.316406 L 25.039062 49.25 L 25.058594 45.144531 Z M 28.628906 47.210938 "/>
<path style=" stroke:none;fill-rule:nonzero;fill:rgb(26.27451%,80.784314%,100%);fill-opacity:1;" d="M 21.496094 38.996094 L 32.136719 32.828125 L 35.71875 34.882812 L 25.066406 41.050781 Z M 21.496094 38.996094 "/>
<path style=" stroke:none;fill-rule:nonzero;fill:rgb(26.27451%,80.784314%,100%);fill-opacity:1;" d="M 25.066406 41.050781 L 35.71875 34.882812 L 35.699219 38.976562 L 25.058594 45.144531 Z M 25.066406 41.050781 "/>
<path style=" stroke:none;fill-rule:nonzero;fill:rgb(26.27451%,80.784314%,100%);fill-opacity:1;" d="M 25.066406 41.050781 L 25.058594 45.144531 L 21.480469 43.089844 L 21.496094 38.996094 Z M 25.066406 41.050781 "/>
<path style=" stroke:none;fill-rule:nonzero;fill:rgb(51.372549%,85.098039%,100%);fill-opacity:1;" d="M 17.917969 32.828125 L 28.566406 26.65625 L 32.136719 28.714844 L 21.496094 34.890625 Z M 17.917969 32.828125 "/>
<path style=" stroke:none;fill-rule:nonzero;fill:rgb(51.372549%,85.098039%,100%);fill-opacity:1;" d="M 21.496094 34.890625 L 21.480469 38.988281 L 17.90625 36.929688 L 17.917969 32.828125 Z M 21.496094 34.890625 "/>
<path style=" stroke:none;fill-rule:nonzero;fill:rgb(51.372549%,85.098039%,100%);fill-opacity:1;" d="M 21.496094 34.890625 L 32.136719 28.714844 L 32.128906 32.816406 L 21.480469 38.988281 Z M 21.496094 34.890625 "/>
<path style=" stroke:none;fill-rule:nonzero;fill:rgb(51.372549%,85.098039%,100%);fill-opacity:1;" d="M 21.507812 34.890625 L 32.15625 28.722656 L 32.136719 32.828125 L 21.496094 38.996094 Z M 21.507812 34.890625 "/>
<path style=" stroke:none;fill-rule:nonzero;fill:rgb(26.27451%,80.784314%,100%);fill-opacity:1;" d="M 32.210938 49.269531 L 42.847656 43.097656 L 42.839844 47.195312 L 32.191406 53.371094 Z M 32.210938 49.269531 "/>
<path style=" stroke:none;fill-rule:nonzero;fill:rgb(26.27451%,80.784314%,100%);fill-opacity:1;" d="M 32.210938 49.269531 L 32.191406 53.371094 L 28.621094 51.316406 L 28.628906 47.210938 Z M 32.210938 49.269531 "/>
<path style=" stroke:none;fill-rule:nonzero;fill:rgb(26.27451%,80.784314%,100%);fill-opacity:1;" d="M 28.628906 47.210938 L 39.277344 41.042969 L 42.847656 43.097656 L 32.210938 49.269531 Z M 28.628906 47.210938 "/>
<path style=" stroke:none;fill-rule:nonzero;fill:rgb(26.27451%,80.784314%,100%);fill-opacity:1;" d="M 28.648438 43.117188 L 28.628906 47.210938 L 25.058594 45.144531 L 25.066406 41.050781 Z M 28.648438 43.117188 "/>
<path style=" stroke:none;fill-rule:nonzero;fill:rgb(26.27451%,80.784314%,100%);fill-opacity:1;" d="M 28.648438 43.117188 L 39.296875 36.9375 L 39.277344 41.042969 L 28.628906 47.210938 Z M 28.648438 43.117188 "/>
<path style=" stroke:none;fill-rule:nonzero;fill:rgb(26.27451%,80.784314%,100%);fill-opacity:1;" d="M 25.066406 41.050781 L 35.71875 34.882812 L 39.296875 36.9375 L 28.648438 43.117188 Z M 25.066406 41.050781 "/>
<path style=" stroke:none;fill-rule:nonzero;fill:rgb(0%,62.745098%,97.647059%);fill-opacity:1;" d="M 21.507812 34.890625 L 32.15625 28.722656 L 35.726562 30.777344 L 25.078125 36.949219 Z M 21.507812 34.890625 "/>
<path style=" stroke:none;fill-rule:nonzero;fill:rgb(0%,62.745098%,97.647059%);fill-opacity:1;" d="M 25.078125 36.949219 L 35.726562 30.777344 L 35.71875 34.882812 L 25.066406 41.050781 Z M 25.078125 36.949219 "/>
<path style=" stroke:none;fill-rule:nonzero;fill:rgb(0%,62.745098%,97.647059%);fill-opacity:1;" d="M 25.078125 36.949219 L 25.066406 41.050781 L 21.496094 38.996094 L 21.507812 34.890625 Z M 25.078125 36.949219 "/>
<path style=" stroke:none;fill-rule:nonzero;fill:rgb(51.372549%,85.098039%,100%);fill-opacity:1;" d="M 21.507812 30.789062 L 21.496094 34.890625 L 17.917969 32.828125 L 17.933594 28.730469 Z M 21.507812 30.789062 "/>
<path style=" stroke:none;fill-rule:nonzero;fill:rgb(51.372549%,85.098039%,100%);fill-opacity:1;" d="M 21.507812 30.789062 L 32.15625 24.621094 L 32.136719 28.714844 L 21.496094 34.890625 Z M 21.507812 30.789062 "/>
<path style=" stroke:none;fill-rule:nonzero;fill:rgb(51.372549%,85.098039%,100%);fill-opacity:1;" d="M 17.933594 28.730469 L 28.574219 22.5625 L 32.15625 24.621094 L 21.507812 30.789062 Z M 17.933594 28.730469 "/>
<path style=" stroke:none;fill-rule:nonzero;fill:rgb(51.372549%,85.098039%,100%);fill-opacity:1;" d="M 21.515625 30.796875 L 32.164062 24.628906 L 32.15625 28.722656 L 21.507812 34.890625 Z M 21.515625 30.796875 "/>
<path style=" stroke:none;fill-rule:nonzero;fill:rgb(0%,62.745098%,97.647059%);fill-opacity:1;" d="M 17.945312 24.636719 L 28.59375 18.46875 L 28.574219 22.5625 L 17.933594 28.730469 Z M 17.945312 24.636719 "/>
<path style=" stroke:none;fill-rule:nonzero;fill:rgb(0%,62.745098%,97.647059%);fill-opacity:1;" d="M 14.375 22.582031 L 25.023438 16.402344 L 28.59375 18.46875 L 17.945312 24.636719 Z M 14.375 22.582031 "/>
<path style=" stroke:none;fill-rule:nonzero;fill:rgb(0%,62.745098%,97.647059%);fill-opacity:1;" d="M 17.945312 24.636719 L 17.933594 28.730469 L 14.355469 26.675781 L 14.375 22.582031 Z M 17.945312 24.636719 "/>
<path style=" stroke:none;fill-rule:nonzero;fill:rgb(0%,62.745098%,97.647059%);fill-opacity:1;" d="M 10.8125 12.328125 L 10.8125 16.429688 L 7.230469 14.363281 L 7.242188 10.269531 Z M 10.8125 12.328125 "/>
<path style=" stroke:none;fill-rule:nonzero;fill:rgb(0%,62.745098%,97.647059%);fill-opacity:1;" d="M 10.8125 12.328125 L 21.460938 6.15625 L 21.460938 10.253906 L 10.8125 16.429688 Z M 10.8125 12.328125 "/>
<path style=" stroke:none;fill-rule:nonzero;fill:rgb(51.372549%,85.098039%,100%);fill-opacity:1;" d="M 7.242188 10.269531 L 17.890625 4.09375 L 21.460938 6.15625 L 10.8125 12.328125 Z M 7.242188 10.269531 "/>
<path style=" stroke:none;fill-rule:nonzero;fill:rgb(26.27451%,80.784314%,100%);fill-opacity:1;" d="M 32.21875 45.171875 L 32.210938 49.269531 L 28.628906 47.210938 L 28.648438 43.117188 Z M 32.21875 45.171875 "/>
<path style=" stroke:none;fill-rule:nonzero;fill:rgb(26.27451%,80.784314%,100%);fill-opacity:1;" d="M 32.21875 45.171875 L 42.867188 38.996094 L 42.847656 43.097656 L 32.210938 49.269531 Z M 32.21875 45.171875 "/>
<path style=" stroke:none;fill-rule:nonzero;fill:rgb(26.27451%,80.784314%,100%);fill-opacity:1;" d="M 28.648438 43.117188 L 39.296875 36.9375 L 42.867188 38.996094 L 32.21875 45.171875 Z M 28.648438 43.117188 "/>
<path style=" stroke:none;fill-rule:nonzero;fill:rgb(0%,62.745098%,97.647059%);fill-opacity:1;" d="M 28.65625 39.011719 L 28.648438 43.117188 L 25.066406 41.050781 L 25.078125 36.949219 Z M 28.65625 39.011719 "/>
<path style=" stroke:none;fill-rule:nonzero;fill:rgb(51.372549%,85.098039%,100%);fill-opacity:1;" d="M 25.078125 36.949219 L 35.726562 30.777344 L 39.304688 32.835938 L 28.65625 39.011719 Z M 25.078125 36.949219 "/>
<path style=" stroke:none;fill-rule:nonzero;fill:rgb(0%,62.745098%,97.647059%);fill-opacity:1;" d="M 28.65625 39.011719 L 39.304688 32.835938 L 39.296875 36.9375 L 28.648438 43.117188 Z M 28.65625 39.011719 "/>
<path style=" stroke:none;fill-rule:nonzero;fill:rgb(0%,62.745098%,97.647059%);fill-opacity:1;" d="M 25.085938 32.855469 L 25.078125 36.949219 L 21.507812 34.890625 L 21.515625 30.796875 Z M 25.085938 32.855469 "/>
<path style=" stroke:none;fill-rule:nonzero;fill:rgb(0%,54.509804%,73.72549%);fill-opacity:1;" d="M 25.085938 32.855469 L 35.734375 26.683594 L 35.726562 30.777344 L 25.078125 36.949219 Z M 25.085938 32.855469 "/>
<path style=" stroke:none;fill-rule:nonzero;fill:rgb(0%,62.745098%,97.647059%);fill-opacity:1;" d="M 21.515625 30.796875 L 32.164062 24.628906 L 35.734375 26.683594 L 25.085938 32.855469 Z M 21.515625 30.796875 "/>
<path style=" stroke:none;fill-rule:nonzero;fill:rgb(51.372549%,85.098039%,100%);fill-opacity:1;" d="M 21.515625 26.695312 L 32.164062 20.523438 L 32.15625 24.621094 L 21.507812 30.789062 Z M 21.515625 26.695312 "/>
<path style=" stroke:none;fill-rule:nonzero;fill:rgb(51.372549%,85.098039%,100%);fill-opacity:1;" d="M 17.945312 24.636719 L 28.59375 18.46875 L 32.164062 20.523438 L 21.515625 26.695312 Z M 17.945312 24.636719 "/>
<path style=" stroke:none;fill-rule:nonzero;fill:rgb(51.372549%,85.098039%,100%);fill-opacity:1;" d="M 21.515625 26.695312 L 21.507812 30.789062 L 17.933594 28.730469 L 17.945312 24.636719 Z M 21.515625 26.695312 "/>
<path style=" stroke:none;fill-rule:nonzero;fill:rgb(51.372549%,85.098039%,100%);fill-opacity:1;" d="M 21.523438 26.703125 L 32.171875 20.535156 L 32.164062 24.628906 L 21.515625 30.796875 Z M 21.523438 26.703125 "/>
<path style=" stroke:none;fill-rule:nonzero;fill:rgb(0%,62.745098%,97.647059%);fill-opacity:1;" d="M 17.953125 20.542969 L 17.945312 24.636719 L 14.375 22.582031 L 14.382812 18.488281 Z M 17.953125 20.542969 "/>
<path style=" stroke:none;fill-rule:nonzero;fill:rgb(0%,62.745098%,97.647059%);fill-opacity:1;" d="M 17.953125 20.542969 L 28.601562 14.363281 L 28.59375 18.46875 L 17.945312 24.636719 Z M 17.953125 20.542969 "/>
<path style=" stroke:none;fill-rule:nonzero;fill:rgb(0%,62.745098%,97.647059%);fill-opacity:1;" d="M 14.382812 18.488281 L 25.03125 12.308594 L 28.601562 14.363281 L 17.953125 20.542969 Z M 14.382812 18.488281 "/>
<path style=" stroke:none;fill-rule:nonzero;fill:rgb(51.372549%,85.098039%,100%);fill-opacity:1;" d="M 14.390625 14.382812 L 25.039062 8.214844 L 25.03125 12.308594 L 14.382812 18.488281 Z M 14.390625 14.382812 "/>
<path style=" stroke:none;fill-rule:nonzero;fill:rgb(51.372549%,85.098039%,100%);fill-opacity:1;" d="M 14.390625 14.382812 L 14.382812 18.488281 L 10.8125 16.429688 L 10.820312 12.328125 Z M 14.390625 14.382812 "/>
<path style=" stroke:none;fill-rule:nonzero;fill:rgb(51.372549%,85.098039%,100%);fill-opacity:1;" d="M 10.820312 12.328125 L 21.46875 6.15625 L 25.039062 8.214844 L 14.390625 14.382812 Z M 10.820312 12.328125 "/>
<path style=" stroke:none;fill-rule:nonzero;fill:rgb(100%,100%,100%);fill-opacity:1;" d="M 10.828125 8.230469 L 21.480469 2.054688 L 21.488281 2.0625 L 10.847656 8.242188 Z M 10.828125 8.230469 "/>
<path style=" stroke:none;fill-rule:nonzero;fill:rgb(0%,62.745098%,97.647059%);fill-opacity:1;" d="M 25.105469 28.757812 L 25.085938 32.855469 L 21.515625 30.796875 L 21.523438 26.703125 Z M 25.105469 28.757812 "/>
<path style=" stroke:none;fill-rule:nonzero;fill:rgb(0%,54.509804%,73.72549%);fill-opacity:1;" d="M 25.105469 28.757812 L 35.753906 22.589844 L 35.734375 26.683594 L 25.085938 32.855469 Z M 25.105469 28.757812 "/>
<path style=" stroke:none;fill-rule:nonzero;fill:rgb(0%,62.745098%,97.647059%);fill-opacity:1;" d="M 21.523438 26.703125 L 32.171875 20.535156 L 35.753906 22.589844 L 25.105469 28.757812 Z M 21.523438 26.703125 "/>
<path style=" stroke:none;fill-rule:nonzero;fill:rgb(51.372549%,85.098039%,100%);fill-opacity:1;" d="M 17.953125 20.542969 L 28.601562 14.363281 L 32.171875 16.429688 L 21.53125 22.597656 Z M 17.953125 20.542969 "/>
<path style=" stroke:none;fill-rule:nonzero;fill:rgb(51.372549%,85.098039%,100%);fill-opacity:1;" d="M 21.53125 22.597656 L 32.171875 16.429688 L 32.164062 20.523438 L 21.515625 26.695312 Z M 21.53125 22.597656 "/>
<path style=" stroke:none;fill-rule:nonzero;fill:rgb(51.372549%,85.098039%,100%);fill-opacity:1;" d="M 21.53125 22.597656 L 21.515625 26.695312 L 17.945312 24.636719 L 17.953125 20.542969 Z M 21.53125 22.597656 "/>
<path style=" stroke:none;fill-rule:nonzero;fill:rgb(51.372549%,85.098039%,100%);fill-opacity:1;" d="M 21.542969 22.609375 L 32.191406 16.429688 L 32.171875 20.535156 L 21.523438 26.703125 Z M 21.542969 22.609375 "/>
<path style=" stroke:none;fill-rule:nonzero;fill:rgb(45.098039%,57.254902%,57.647059%);fill-opacity:1;" d="M 17.960938 16.4375 L 28.613281 10.269531 L 28.601562 14.363281 L 17.953125 20.542969 Z M 17.960938 16.4375 "/>
<path style=" stroke:none;fill-rule:nonzero;fill:rgb(45.098039%,57.254902%,57.647059%);fill-opacity:1;" d="M 14.390625 14.390625 L 25.039062 8.214844 L 28.613281 10.269531 L 17.960938 16.4375 Z M 14.390625 14.390625 "/>
<path style=" stroke:none;fill-rule:nonzero;fill:rgb(45.098039%,57.254902%,57.647059%);fill-opacity:1;" d="M 17.960938 16.4375 L 17.953125 20.542969 L 14.382812 18.488281 L 14.390625 14.390625 Z M 17.960938 16.4375 "/>
<path style=" stroke:none;fill-rule:nonzero;fill:rgb(51.372549%,85.098039%,100%);fill-opacity:1;" d="M 10.847656 8.242188 L 21.488281 2.0625 L 25.050781 4.121094 L 14.402344 10.289062 Z M 10.847656 8.242188 "/>
<path style=" stroke:none;fill-rule:nonzero;fill:rgb(100%,100%,100%);fill-opacity:1;" d="M 14.402344 10.289062 L 25.050781 4.121094 L 25.039062 8.214844 L 14.390625 14.382812 Z M 14.402344 10.289062 "/>
<path style=" stroke:none;fill-rule:nonzero;fill:rgb(100%,100%,100%);fill-opacity:1;" d="M 14.402344 10.289062 L 14.390625 14.382812 L 10.820312 12.328125 L 10.828125 8.230469 L 10.847656 8.242188 Z M 14.402344 10.289062 "/>
<path style=" stroke:none;fill-rule:nonzero;fill:rgb(45.098039%,57.254902%,57.647059%);fill-opacity:1;" d="M 14.402344 10.289062 L 25.050781 4.121094 L 25.066406 4.128906 L 14.429688 10.304688 Z M 14.402344 10.289062 "/>
<path style=" stroke:none;fill-rule:nonzero;fill:rgb(0%,62.745098%,97.647059%);fill-opacity:1;" d="M 25.113281 24.664062 L 35.761719 18.488281 L 35.753906 22.589844 L 25.105469 28.757812 Z M 25.113281 24.664062 "/>
<path style=" stroke:none;fill-rule:nonzero;fill:rgb(0%,62.745098%,97.647059%);fill-opacity:1;" d="M 21.542969 22.609375 L 32.191406 16.429688 L 35.761719 18.488281 L 25.113281 24.664062 Z M 21.542969 22.609375 "/>
<path style=" stroke:none;fill-rule:nonzero;fill:rgb(0%,62.745098%,97.647059%);fill-opacity:1;" d="M 25.113281 24.664062 L 25.105469 28.757812 L 21.523438 26.703125 L 21.542969 22.609375 Z M 25.113281 24.664062 "/>
<path style=" stroke:none;fill-rule:nonzero;fill:rgb(45.098039%,57.254902%,57.647059%);fill-opacity:1;" d="M 21.53125 18.503906 L 32.183594 12.328125 L 32.171875 16.429688 L 21.53125 22.597656 Z M 21.53125 18.503906 "/>
<path style=" stroke:none;fill-rule:nonzero;fill:rgb(45.098039%,57.254902%,57.647059%);fill-opacity:1;" d="M 21.53125 18.503906 L 21.53125 22.597656 L 17.953125 20.542969 L 17.972656 16.449219 Z M 21.53125 18.503906 "/>
<path style=" stroke:none;fill-rule:nonzero;fill:rgb(45.098039%,57.254902%,57.647059%);fill-opacity:1;" d="M 17.972656 16.449219 L 28.613281 10.269531 L 32.183594 12.328125 L 21.53125 18.503906 Z M 17.972656 16.449219 "/>
<path style=" stroke:none;fill-rule:nonzero;fill:rgb(51.372549%,85.098039%,100%);fill-opacity:1;" d="M 21.542969 18.503906 L 32.191406 12.335938 L 32.191406 16.429688 L 21.542969 22.609375 Z M 21.542969 18.503906 "/>
<path style=" stroke:none;fill-rule:nonzero;fill:rgb(45.098039%,57.254902%,57.647059%);fill-opacity:1;" d="M 17.972656 12.34375 L 17.960938 16.4375 L 14.390625 14.390625 L 14.402344 10.289062 L 14.429688 10.304688 Z M 17.972656 12.34375 "/>
<path style=" stroke:none;fill-rule:nonzero;fill:rgb(45.098039%,57.254902%,57.647059%);fill-opacity:1;" d="M 14.429688 10.304688 L 25.066406 4.128906 L 28.621094 6.175781 L 17.972656 12.34375 Z M 14.429688 10.304688 "/>
<path style=" stroke:none;fill-rule:nonzero;fill:rgb(45.098039%,57.254902%,57.647059%);fill-opacity:1;" d="M 17.972656 12.34375 L 28.621094 6.175781 L 28.613281 10.269531 L 17.960938 16.4375 Z M 17.972656 12.34375 "/>
<path style=" stroke:none;fill-rule:nonzero;fill:rgb(38.823529%,29.411765%,15.294118%);fill-opacity:1;" d="M 18.007812 8.269531 L 28.65625 2.089844 L 28.648438 6.183594 L 18 12.363281 Z M 18.007812 8.269531 "/>
<path style=" stroke:none;fill-rule:nonzero;fill:rgb(45.098039%,57.254902%,57.647059%);fill-opacity:1;" d="M 17.972656 12.34375 L 28.621094 6.175781 L 28.648438 6.183594 L 18 12.363281 Z M 17.972656 12.34375 "/>
<path style=" stroke:none;fill-rule:nonzero;fill:rgb(0%,54.509804%,73.72549%);fill-opacity:1;" d="M 28.691406 26.730469 L 39.34375 20.550781 L 39.324219 24.644531 L 28.683594 30.824219 Z M 28.691406 26.730469 "/>
<path style=" stroke:none;fill-rule:nonzero;fill:rgb(0%,62.745098%,97.647059%);fill-opacity:1;" d="M 28.691406 26.730469 L 28.683594 30.824219 L 25.105469 28.757812 L 25.113281 24.664062 Z M 28.691406 26.730469 "/>
<path style=" stroke:none;fill-rule:nonzero;fill:rgb(0%,62.745098%,97.647059%);fill-opacity:1;" d="M 25.113281 24.664062 L 35.761719 18.488281 L 39.34375 20.550781 L 28.691406 26.730469 Z M 25.113281 24.664062 "/>
<path style=" stroke:none;fill-rule:nonzero;fill:rgb(45.098039%,57.254902%,57.647059%);fill-opacity:1;" d="M 25.121094 20.570312 L 25.113281 24.664062 L 21.542969 22.609375 L 21.550781 18.511719 Z M 25.121094 20.570312 "/>
<path style=" stroke:none;fill-rule:nonzero;fill:rgb(45.098039%,57.254902%,57.647059%);fill-opacity:1;" d="M 25.121094 20.570312 L 35.761719 14.390625 L 35.761719 18.488281 L 25.113281 24.664062 Z M 25.121094 20.570312 "/>
<path style=" stroke:none;fill-rule:nonzero;fill:rgb(45.098039%,57.254902%,57.647059%);fill-opacity:1;" d="M 21.550781 18.511719 L 32.199219 12.335938 L 35.761719 14.390625 L 25.121094 20.570312 Z M 21.550781 18.511719 "/>
<path style=" stroke:none;fill-rule:nonzero;fill:rgb(45.098039%,57.254902%,57.647059%);fill-opacity:1;" d="M 21.542969 14.410156 L 32.191406 8.230469 L 32.183594 12.328125 L 21.53125 18.503906 Z M 21.542969 14.410156 "/>
<path style=" stroke:none;fill-rule:nonzero;fill:rgb(51.372549%,85.098039%,100%);fill-opacity:1;" d="M 21.542969 14.410156 L 21.542969 22.609375 L 21.523438 26.703125 L 21.507812 34.890625 L 21.496094 38.996094 L 21.480469 43.089844 L 21.46875 47.195312 L 21.460938 51.289062 L 21.460938 47.183594 L 21.46875 43.082031 L 21.480469 38.988281 L 21.496094 34.890625 L 21.507812 30.789062 L 21.515625 26.695312 L 21.53125 22.597656 L 21.542969 18.503906 Z M 21.542969 14.410156 "/>
<path style=" stroke:none;fill-rule:nonzero;fill:rgb(45.098039%,57.254902%,57.647059%);fill-opacity:1;" d="M 18 12.363281 L 28.648438 6.183594 L 32.191406 8.230469 L 21.542969 14.410156 Z M 18 12.363281 "/>
<path style=" stroke:none;fill-rule:nonzero;fill:rgb(51.372549%,85.098039%,100%);fill-opacity:1;" d="M 21.542969 14.410156 L 32.191406 8.230469 L 32.191406 12.335938 L 21.542969 18.503906 Z M 21.542969 14.410156 "/>
<path style=" stroke:none;fill-rule:nonzero;fill:rgb(45.098039%,57.254902%,57.647059%);fill-opacity:1;" d="M 21.542969 14.410156 L 21.53125 18.503906 L 17.972656 16.449219 L 17.972656 12.34375 L 18 12.363281 Z M 21.542969 14.410156 "/>
<path style=" stroke:none;fill-rule:nonzero;fill:rgb(45.098039%,57.254902%,57.647059%);fill-opacity:1;" d="M 21.558594 14.410156 L 32.210938 8.242188 L 32.21875 8.25 L 21.570312 14.417969 Z M 21.558594 14.410156 "/>
<path style=" stroke:none;fill-rule:nonzero;fill:rgb(45.098039%,57.254902%,57.647059%);fill-opacity:1;" d="M 21.570312 14.417969 L 32.21875 8.25 L 32.226562 8.25 L 21.578125 14.429688 Z M 21.570312 14.417969 "/>
<path style=" stroke:none;fill-rule:nonzero;fill:rgb(38.823529%,29.411765%,15.294118%);fill-opacity:1;" d="M 18.007812 8.269531 L 18 12.363281 L 17.972656 12.34375 L 14.429688 10.304688 L 14.4375 6.203125 Z M 18.007812 8.269531 "/>
<path style=" stroke:none;fill-rule:nonzero;fill:rgb(50.980392%,39.215686%,23.529412%);fill-opacity:1;" d="M 14.4375 6.203125 L 25.085938 0.0351562 L 28.65625 2.089844 L 18.007812 8.269531 Z M 14.4375 6.203125 "/>
<path style=" stroke:none;fill-rule:nonzero;fill:rgb(45.098039%,57.254902%,57.647059%);fill-opacity:1;" d="M 21.578125 14.429688 L 32.226562 8.25 L 35.78125 10.296875 L 25.132812 16.464844 Z M 21.578125 14.429688 "/>
<path style=" stroke:none;fill-rule:nonzero;fill:rgb(45.098039%,57.254902%,57.647059%);fill-opacity:1;" d="M 25.132812 16.464844 L 35.78125 10.296875 L 35.761719 14.390625 L 25.121094 20.570312 Z M 25.132812 16.464844 "/>
<path style=" stroke:none;fill-rule:nonzero;fill:rgb(45.098039%,57.254902%,57.647059%);fill-opacity:1;" d="M 25.132812 16.464844 L 25.121094 20.570312 L 21.550781 18.511719 L 21.558594 14.410156 L 21.570312 14.417969 L 21.578125 14.429688 Z M 25.132812 16.464844 "/>
<path style=" stroke:none;fill-rule:nonzero;fill:rgb(0%,54.509804%,73.72549%);fill-opacity:1;" d="M 35.742188 71.824219 L 46.394531 65.65625 L 46.375 69.757812 L 35.734375 75.929688 Z M 35.742188 71.824219 "/>
<path style=" stroke:none;fill-rule:nonzero;fill:rgb(0%,62.745098%,97.647059%);fill-opacity:1;" d="M 32.164062 69.757812 L 42.8125 63.589844 L 46.394531 65.65625 L 35.742188 71.824219 Z M 32.164062 69.757812 "/>
<path style=" stroke:none;fill-rule:nonzero;fill:rgb(0%,62.745098%,97.647059%);fill-opacity:1;" d="M 35.742188 71.824219 L 35.734375 75.929688 L 32.15625 73.863281 L 32.164062 69.757812 Z M 35.742188 71.824219 "/>
<path style=" stroke:none;fill-rule:nonzero;fill:rgb(0%,54.509804%,73.72549%);fill-opacity:1;" d="M 35.753906 67.730469 L 46.402344 61.5625 L 46.394531 65.65625 L 35.742188 71.824219 Z M 35.753906 67.730469 "/>
<path style=" stroke:none;fill-rule:nonzero;fill:rgb(0%,62.745098%,97.647059%);fill-opacity:1;" d="M 32.171875 65.664062 L 42.824219 59.496094 L 46.402344 61.5625 L 35.753906 67.730469 Z M 32.171875 65.664062 "/>
<path style=" stroke:none;fill-rule:nonzero;fill:rgb(0%,62.745098%,97.647059%);fill-opacity:1;" d="M 35.753906 67.730469 L 35.742188 71.824219 L 32.164062 69.757812 L 32.171875 65.664062 Z M 35.753906 67.730469 "/>
<path style=" stroke:none;fill-rule:nonzero;fill:rgb(80%,0%,0%);fill-opacity:1;" d="M 35.761719 63.636719 L 46.410156 57.457031 L 46.402344 61.5625 L 35.753906 67.730469 Z M 35.761719 63.636719 "/>
<path style=" stroke:none;fill-rule:nonzero;fill:rgb(80%,0%,0%);fill-opacity:1;" d="M 32.191406 61.570312 L 42.832031 55.402344 L 46.410156 57.457031 L 35.761719 63.636719 Z M 32.191406 61.570312 "/>
<path style=" stroke:none;fill-rule:nonzero;fill:rgb(80%,0%,0%);fill-opacity:1;" d="M 35.761719 63.636719 L 35.753906 67.730469 L 32.171875 65.664062 L 32.191406 61.570312 Z M 35.761719 63.636719 "/>
<path style=" stroke:none;fill-rule:nonzero;fill:rgb(80%,0%,0%);fill-opacity:1;" d="M 32.199219 57.476562 L 42.847656 51.304688 L 46.402344 53.355469 L 35.753906 59.523438 Z M 32.199219 57.476562 "/>
<path style=" stroke:none;fill-rule:nonzero;fill:rgb(80%,0%,0%);fill-opacity:1;" d="M 35.78125 59.539062 L 46.429688 53.363281 L 46.410156 57.457031 L 35.761719 63.636719 Z M 35.78125 59.539062 "/>
<path style=" stroke:none;fill-rule:nonzero;fill:rgb(80%,0%,0%);fill-opacity:1;" d="M 35.753906 59.523438 L 46.402344 53.355469 L 46.429688 53.363281 L 35.78125 59.539062 Z M 35.753906 59.523438 "/>
<path style=" stroke:none;fill-rule:nonzero;fill:rgb(80%,0%,0%);fill-opacity:1;" d="M 35.78125 59.539062 L 35.761719 63.636719 L 32.191406 61.570312 L 32.199219 57.476562 L 35.753906 59.523438 Z M 35.78125 59.539062 "/>
<path style=" stroke:none;fill-rule:nonzero;fill:rgb(80%,0%,0%);fill-opacity:1;" d="M 35.769531 55.429688 L 46.410156 49.257812 L 46.402344 53.355469 L 35.753906 59.523438 Z M 35.769531 55.429688 "/>
<path style=" stroke:none;fill-rule:nonzero;fill:rgb(80%,0%,0%);fill-opacity:1;" d="M 32.191406 53.371094 L 42.839844 47.195312 L 46.410156 49.257812 L 35.769531 55.429688 Z M 32.191406 53.371094 "/>
<path style=" stroke:none;fill-rule:nonzero;fill:rgb(80%,0%,0%);fill-opacity:1;" d="M 35.769531 55.429688 L 35.753906 59.523438 L 32.199219 57.476562 L 32.183594 57.464844 L 32.191406 53.371094 Z M 35.769531 55.429688 "/>
<path style=" stroke:none;fill-rule:nonzero;fill:rgb(0%,54.509804%,73.72549%);fill-opacity:1;" d="M 39.34375 65.691406 L 49.992188 59.511719 L 49.972656 63.617188 L 39.332031 69.785156 Z M 39.34375 65.691406 "/>
<path style=" stroke:none;fill-rule:nonzero;fill:rgb(0%,62.745098%,97.647059%);fill-opacity:1;" d="M 35.761719 63.636719 L 46.410156 57.457031 L 49.992188 59.511719 L 39.34375 65.691406 Z M 35.761719 63.636719 "/>
<path style=" stroke:none;fill-rule:nonzero;fill:rgb(0%,62.745098%,97.647059%);fill-opacity:1;" d="M 39.34375 65.691406 L 39.332031 69.785156 L 35.753906 67.730469 L 35.761719 63.636719 Z M 39.34375 65.691406 "/>
<path style=" stroke:none;fill-rule:nonzero;fill:rgb(0%,54.509804%,73.72549%);fill-opacity:1;" d="M 35.78125 51.324219 L 46.429688 45.15625 L 46.410156 49.257812 L 35.769531 55.429688 Z M 35.78125 51.324219 "/>
<path style=" stroke:none;fill-rule:nonzero;fill:rgb(0%,62.745098%,97.647059%);fill-opacity:1;" d="M 32.210938 49.269531 L 42.847656 43.097656 L 46.429688 45.15625 L 35.78125 51.324219 Z M 32.210938 49.269531 "/>
<path style=" stroke:none;fill-rule:nonzero;fill:rgb(0%,62.745098%,97.647059%);fill-opacity:1;" d="M 35.78125 51.324219 L 35.769531 55.429688 L 32.191406 53.371094 L 32.210938 49.269531 Z M 35.78125 51.324219 "/>
<path style=" stroke:none;fill-rule:nonzero;fill:rgb(0%,62.745098%,97.647059%);fill-opacity:1;" d="M 35.78125 59.539062 L 46.429688 53.363281 L 49.980469 55.410156 L 39.332031 61.589844 Z M 35.78125 59.539062 "/>
<path style=" stroke:none;fill-rule:nonzero;fill:rgb(0%,54.509804%,73.72549%);fill-opacity:1;" d="M 39.351562 61.597656 L 50 55.417969 L 49.992188 59.511719 L 39.34375 65.691406 Z M 39.351562 61.597656 "/>
<path style=" stroke:none;fill-rule:nonzero;fill:rgb(0%,62.745098%,97.647059%);fill-opacity:1;" d="M 39.332031 61.589844 L 49.980469 55.410156 L 50 55.417969 L 39.351562 61.597656 Z M 39.332031 61.589844 "/>
<path style=" stroke:none;fill-rule:nonzero;fill:rgb(0%,62.745098%,97.647059%);fill-opacity:1;" d="M 39.351562 61.597656 L 39.34375 65.691406 L 35.761719 63.636719 L 35.78125 59.539062 L 39.332031 61.589844 Z M 39.351562 61.597656 "/>
<path style=" stroke:none;fill-rule:nonzero;fill:rgb(0%,54.509804%,73.72549%);fill-opacity:1;" d="M 32.226562 41.070312 L 42.875 34.902344 L 42.867188 38.996094 L 32.21875 45.171875 Z M 32.226562 41.070312 "/>
<path style=" stroke:none;fill-rule:nonzero;fill:rgb(51.372549%,85.098039%,100%);fill-opacity:1;" d="M 28.65625 39.011719 L 39.304688 32.835938 L 42.875 34.902344 L 32.226562 41.070312 Z M 28.65625 39.011719 "/>
<path style=" stroke:none;fill-rule:nonzero;fill:rgb(0%,62.745098%,97.647059%);fill-opacity:1;" d="M 32.226562 41.070312 L 32.21875 45.171875 L 28.648438 43.117188 L 28.65625 39.011719 Z M 32.226562 41.070312 "/>
<path style=" stroke:none;fill-rule:nonzero;fill:rgb(0%,54.509804%,73.72549%);fill-opacity:1;" d="M 35.789062 47.230469 L 46.4375 41.0625 L 46.429688 45.15625 L 35.78125 51.324219 Z M 35.789062 47.230469 "/>
<path style=" stroke:none;fill-rule:nonzero;fill:rgb(51.372549%,85.098039%,100%);fill-opacity:1;" d="M 32.21875 45.171875 L 42.867188 38.996094 L 46.4375 41.0625 L 35.789062 47.230469 Z M 32.21875 45.171875 "/>
<path style=" stroke:none;fill-rule:nonzero;fill:rgb(0%,62.745098%,97.647059%);fill-opacity:1;" d="M 35.789062 47.230469 L 35.78125 51.324219 L 32.210938 49.269531 L 32.21875 45.171875 Z M 35.789062 47.230469 "/>
<path style=" stroke:none;fill-rule:nonzero;fill:rgb(0%,54.509804%,73.72549%);fill-opacity:1;" d="M 39.34375 57.492188 L 49.992188 51.316406 L 49.980469 55.410156 L 39.332031 61.589844 Z M 39.34375 57.492188 "/>
<path style=" stroke:none;fill-rule:nonzero;fill:rgb(51.372549%,85.098039%,100%);fill-opacity:1;" d="M 35.769531 55.429688 L 46.410156 49.257812 L 49.992188 51.316406 L 39.34375 57.492188 Z M 35.769531 55.429688 "/>
<path style=" stroke:none;fill-rule:nonzero;fill:rgb(0%,62.745098%,97.647059%);fill-opacity:1;" d="M 39.34375 57.492188 L 39.332031 61.589844 L 35.78125 59.539062 L 35.753906 59.523438 L 35.769531 55.429688 Z M 39.34375 57.492188 "/>
<path style=" stroke:none;fill-rule:nonzero;fill:rgb(38.823529%,29.411765%,15.294118%);fill-opacity:1;" d="M 21.578125 10.324219 L 32.226562 4.144531 L 32.21875 8.25 L 21.570312 14.417969 Z M 21.578125 10.324219 "/>
<path style=" stroke:none;fill-rule:nonzero;fill:rgb(50.980392%,39.215686%,23.529412%);fill-opacity:1;" d="M 18.007812 8.269531 L 28.65625 2.089844 L 32.226562 4.144531 L 21.578125 10.324219 Z M 18.007812 8.269531 "/>
<path style=" stroke:none;fill-rule:nonzero;fill:rgb(38.823529%,29.411765%,15.294118%);fill-opacity:1;" d="M 21.578125 10.324219 L 21.570312 14.417969 L 21.558594 14.410156 L 21.542969 14.410156 L 18 12.363281 L 18.007812 8.269531 Z M 21.578125 10.324219 "/>
<path style=" stroke:none;fill-rule:nonzero;fill:rgb(51.372549%,85.098039%,100%);fill-opacity:1;" d="M 28.703125 22.625 L 39.34375 16.457031 L 39.34375 20.550781 L 28.691406 26.730469 Z M 28.703125 22.625 "/>
<path style=" stroke:none;fill-rule:nonzero;fill:rgb(51.372549%,85.098039%,100%);fill-opacity:1;" d="M 25.121094 20.570312 L 35.769531 14.390625 L 39.34375 16.457031 L 28.703125 22.625 Z M 25.121094 20.570312 "/>
<path style=" stroke:none;fill-rule:nonzero;fill:rgb(51.372549%,85.098039%,100%);fill-opacity:1;" d="M 28.703125 22.625 L 28.691406 26.730469 L 25.113281 24.664062 L 25.121094 20.570312 Z M 28.703125 22.625 "/>
<path style=" stroke:none;fill-rule:nonzero;fill:rgb(0%,62.745098%,97.647059%);fill-opacity:1;" d="M 25.132812 16.464844 L 35.78125 10.296875 L 35.796875 10.304688 L 25.148438 16.484375 Z M 25.132812 16.464844 "/>
<path style=" stroke:none;fill-rule:nonzero;fill:rgb(0%,54.509804%,73.72549%);fill-opacity:1;" d="M 28.710938 18.53125 L 39.359375 12.355469 L 39.34375 16.457031 L 28.703125 22.625 Z M 28.710938 18.53125 "/>
<path style=" stroke:none;fill-rule:nonzero;fill:rgb(51.372549%,85.098039%,100%);fill-opacity:1;" d="M 25.148438 16.484375 L 35.796875 10.304688 L 39.359375 12.355469 L 28.710938 18.53125 Z M 25.148438 16.484375 "/>
<path style=" stroke:none;fill-rule:nonzero;fill:rgb(0%,62.745098%,97.647059%);fill-opacity:1;" d="M 28.710938 18.53125 L 28.703125 22.625 L 25.121094 20.570312 L 25.132812 16.464844 L 25.148438 16.484375 Z M 28.710938 18.53125 "/>
<path style=" stroke:none;fill-rule:nonzero;fill:rgb(16.862745%,11.372549%,4.705882%);fill-opacity:1;" d="M 25.167969 12.390625 L 35.816406 6.210938 L 35.796875 10.304688 L 25.148438 16.484375 Z M 25.167969 12.390625 "/>
<path style=" stroke:none;fill-rule:nonzero;fill:rgb(50.980392%,39.215686%,23.529412%);fill-opacity:1;" d="M 21.597656 10.332031 L 32.238281 4.15625 L 35.816406 6.210938 L 25.167969 12.390625 Z M 21.597656 10.332031 "/>
<path style=" stroke:none;fill-rule:nonzero;fill:rgb(24.705882%,17.254902%,7.45098%);fill-opacity:1;" d="M 25.167969 12.390625 L 25.148438 16.484375 L 25.132812 16.464844 L 21.578125 14.429688 L 21.597656 10.332031 Z M 25.167969 12.390625 "/>
<path style=" stroke:none;fill-rule:nonzero;fill:rgb(0%,54.509804%,73.72549%);fill-opacity:1;" d="M 32.273438 24.683594 L 42.921875 18.511719 L 42.914062 22.609375 L 32.261719 28.785156 Z M 32.273438 24.683594 "/>
<path style=" stroke:none;fill-rule:nonzero;fill:rgb(51.372549%,85.098039%,100%);fill-opacity:1;" d="M 28.703125 22.625 L 39.351562 16.457031 L 42.921875 18.511719 L 32.273438 24.683594 Z M 28.703125 22.625 "/>
<path style=" stroke:none;fill-rule:nonzero;fill:rgb(0%,62.745098%,97.647059%);fill-opacity:1;" d="M 32.273438 24.683594 L 32.261719 28.785156 L 28.691406 26.730469 L 28.703125 22.625 Z M 32.273438 24.683594 "/>
</g>
</svg>
